<svg width="57" height="38" viewBox="0 0 57 38" fill="none" xmlns="http://www.w3.org/2000/svg">
<path d="M28.3549 1.20883e-10C27.8928 -3.81894e-06 27.4352 0.0904858 27.0083 0.266301C26.5814 0.442116 26.1935 0.699814 25.8667 1.02468C25.5399 1.34955 25.2808 1.73522 25.1039 2.15968C24.9271 2.58414 24.8361 3.03908 24.8361 3.49851C24.8361 3.95794 24.9271 4.41287 25.1039 4.83732C25.2808 5.26178 25.54 5.64745 25.8667 5.97231C26.1935 6.29717 26.5814 6.55487 27.0083 6.73068C27.4353 6.90649 27.8928 6.99698 28.3549 6.99698C29.2882 6.99697 30.1832 6.62838 30.8431 5.97229C31.503 5.31621 31.8738 4.42636 31.8738 3.49851C31.8738 3.03908 31.7828 2.58415 31.6059 2.15969C31.4291 1.73524 31.1699 1.34956 30.8431 1.0247C30.5164 0.69983 30.1285 0.442131 29.7015 0.266313C29.2746 0.0904954 28.817 1.9384e-06 28.3549 1.20883e-10ZM17.046 3.46471L28.3549 32.1638L39.6639 3.46471L28.3549 16.2662L17.046 3.46471ZM47.9694 12.129C47.9529 12.1294 47.9363 12.1296 47.9198 12.13C46.66 12.1441 45.411 12.4328 44.2552 12.9253C42.7068 13.5832 41.3238 14.5769 40.0915 15.7083C38.6864 17.0024 37.4633 18.4803 36.3573 20.0317C34.879 22.1145 33.6083 24.3368 32.4676 26.6178C31.6865 28.1848 28.79 33.9003 28.3558 35.1943C27.9482 33.9013 26.3813 30.7078 23.7479 25.6487C22.6434 23.533 21.4187 21.4742 20.0027 19.5486C18.956 18.1296 17.8036 16.7805 16.4934 15.5945C15.2516 14.4735 13.8568 13.4943 12.2981 12.8605C11.178 12.403 9.97334 12.1399 8.76054 12.1294C8.72231 12.1183 8.75291 12.1587 8.75132 12.1771C9.9078 17.3233 11.0646 22.4694 12.2209 27.6157C12.8127 27.8243 13.3865 28.0768 13.957 28.3348C15.6173 29.095 17.2294 29.9548 18.8173 30.8538C21.5775 32.4218 24.2596 34.1231 26.8935 35.8912C27.3676 36.2097 27.8393 36.5316 28.3106 36.8543L28.3551 36.8846C28.3559 36.8844 28.3551 36.8846 28.3999 36.8542C31.2105 34.9275 34.0719 33.0715 37.0184 31.3558C38.7609 30.345 40.5308 29.3777 42.3546 28.519C43.0299 28.2043 43.7088 27.8994 44.4094 27.6434C44.452 27.6286 44.5049 27.623 44.4999 27.5662C45.6564 22.4205 46.8127 17.2747 47.9694 12.129ZM4.63792 13.997C4.37912 13.9973 4.10491 14.0123 3.81616 14.0465C4.25616 16.5072 7.73921 32.1587 7.73921 32.1587C7.73921 32.1587 18.636 33.6666 26.3715 36.5859C20.6945 33.4682 16.2428 30.864 10.6911 29.1385L7.50587 14.7206C7.50587 14.7206 6.44951 13.9952 4.63792 13.997ZM52.1108 13.997C50.2992 13.9952 49.2429 14.7206 49.2429 14.7206L46.0576 29.1385C40.5059 30.864 36.0543 33.4682 30.3772 36.5859C38.1127 33.6666 49.0095 32.1587 49.0095 32.1587C49.0095 32.1587 52.4926 16.5072 52.9326 14.0465C52.6438 14.0123 52.3696 13.9972 52.1108 13.997ZM0.800968 16.0173C0.512887 16.0186 0.233343 16.0448 0 16.1125C0.233343 17.4271 4.50561 37.0499 4.50561 37.0499C9.19497 35.6499 13.5841 35.1806 23.3769 36.4506C22.3343 35.9253 11.62 34.2255 6.51115 33.8958C5.63116 29.9587 2.6062 16.2338 2.6062 16.2338C2.6062 16.2338 1.66521 16.0133 0.800968 16.0173ZM55.9089 16.0173C55.0446 16.0133 54.1036 16.2338 54.1036 16.2338C54.1036 16.2338 51.0787 29.9587 50.1987 33.8958C45.0899 34.2255 34.3756 35.9253 33.3329 36.4506C43.1258 35.1806 47.5149 35.6499 52.2042 37.0499C52.2042 37.0499 56.4765 17.4271 56.7098 16.1125C56.4765 16.0448 56.1969 16.0186 55.9089 16.0173Z" fill="url(#paint0_linear_911_1247)"/>
<defs>
<linearGradient id="paint0_linear_911_1247" x1="28.3549" y1="0" x2="28.3549" y2="37.0499" gradientUnits="userSpaceOnUse">
<stop stop-color="#0F8081"/>
<stop offset="1" stop-color="#005758"/>
</linearGradient>
</defs>
</svg>
