<svg width="167" height="21" viewBox="0 0 167 21" fill="none" xmlns="http://www.w3.org/2000/svg">
<g clip-path="url(#clip0_947_12)">
<path d="M13.741 0C13.7893 0.0274743 13.8376 0.0549487 13.8874 0.0832556C13.9421 0.107498 13.9969 0.13174 14.0533 0.156716C14.1048 0.130858 14.1564 0.105 14.2094 0.0783582C14.3512 0.0852624 14.4928 0.097401 14.634 0.11264C14.8595 0.136452 15.0756 0.156716 15.3025 0.156716C15.4066 0.208955 15.5107 0.261194 15.6148 0.313433C15.7442 0.342949 15.8742 0.369896 16.0051 0.391791C16.0051 0.340075 16.0051 0.288358 16.0051 0.235075C16.1452 0.254468 16.1452 0.254468 16.2882 0.274254C16.4927 0.300731 16.676 0.312539 16.8835 0.308535C17.0982 0.313433 17.0982 0.313433 17.2494 0.406483C17.4294 0.498331 17.4294 0.498331 17.6886 0.367304C17.8215 0.301851 17.8215 0.301851 17.957 0.235075C18.0343 0.209216 18.1116 0.183358 18.1912 0.156716C18.1912 0.234291 18.1912 0.311866 18.1912 0.391791C18.2733 0.378862 18.3555 0.365933 18.4401 0.352612C18.6756 0.321606 18.8916 0.30624 19.1281 0.313433C19.1539 0.365149 19.1796 0.416866 19.2062 0.470149C19.3642 0.521249 19.3642 0.521249 19.5185 0.548507C19.5442 0.470933 19.57 0.393358 19.5965 0.313433C19.6481 0.313433 19.6996 0.313433 19.7527 0.313433C19.7527 0.261716 19.7527 0.21 19.7527 0.156716C19.8681 0.141505 19.9836 0.126931 20.0991 0.11264C20.1635 0.104458 20.2278 0.0962765 20.294 0.0878469C20.3473 0.0847156 20.4005 0.0815844 20.4554 0.0783582C20.4811 0.104216 20.5069 0.130075 20.5334 0.156716C20.6894 0.156716 20.8454 0.156438 21.0013 0.151819C21.158 0.156716 21.158 0.156716 21.3922 0.235075C21.5566 0.234634 21.7209 0.230983 21.8851 0.22528C22.2864 0.221261 22.5281 0.257459 22.8756 0.470149C23.1283 0.525594 23.1283 0.525594 23.3441 0.548507C23.3441 0.496791 23.3441 0.445075 23.3441 0.391791C23.4407 0.40472 23.5373 0.417649 23.6369 0.43097C24.0858 0.481991 24.5325 0.477045 24.9836 0.470149C25.0094 0.418433 25.0352 0.366716 25.0617 0.313433C25.2121 0.266602 25.2121 0.266602 25.3984 0.230177C25.4593 0.217955 25.5202 0.205733 25.5829 0.193141C25.6428 0.181121 25.7027 0.169101 25.7644 0.156716C25.8186 0.13904 25.8729 0.121363 25.9288 0.103151C26.0767 0.0783582 26.0767 0.0783582 26.3109 0.235075C26.3109 0.286791 26.3109 0.338507 26.3109 0.391791C26.8617 0.402917 26.8617 0.402917 27.4088 0.347715C27.5223 0.330745 27.5223 0.330745 27.6381 0.313433C27.6639 0.339291 27.6897 0.365149 27.7162 0.391791C27.8348 0.397417 27.9537 0.398367 28.0724 0.396688C28.1369 0.395981 28.2015 0.395274 28.2679 0.394546C28.3427 0.393182 28.3427 0.393182 28.4189 0.391791C28.4447 0.340075 28.4704 0.288358 28.497 0.235075C28.6661 0.235075 28.8353 0.235729 29.0044 0.239972C29.1873 0.235384 29.3373 0.208656 29.5119 0.156716C29.8242 0.528918 29.8242 0.528918 29.8242 0.705224C29.8787 0.680477 29.9331 0.65573 29.9892 0.630233C30.5575 0.424148 31.1921 0.451335 31.784 0.528306C32.2995 0.574322 32.8205 0.553926 33.3375 0.548507C33.3375 0.496791 33.3375 0.445075 33.3375 0.391791C33.4148 0.391791 33.4921 0.391791 33.5718 0.391791C33.5975 0.443507 33.6233 0.495224 33.6498 0.548507C33.7223 0.548507 33.7948 0.548507 33.8694 0.548507C34.2407 0.548507 34.5946 0.57396 34.9631 0.617377C35.0473 0.622074 35.0473 0.622074 35.1332 0.626866C35.159 0.601007 35.1848 0.575149 35.2113 0.548507C35.4362 0.54273 35.6601 0.548804 35.885 0.553405C36.1282 0.54888 36.3602 0.520947 36.6008 0.488285C36.9275 0.453833 37.2547 0.458923 37.5828 0.460354C37.6516 0.460051 37.7205 0.459748 37.7914 0.459436C38.2052 0.460045 38.6084 0.484312 39.0191 0.536015C39.1971 0.548794 39.3491 0.533136 39.5249 0.504431C39.8328 0.468374 40.004 0.506528 40.2861 0.626866C40.3119 0.601007 40.3376 0.575149 40.3642 0.548507C40.4948 0.541674 40.6256 0.540124 40.7564 0.540855C40.8361 0.541108 40.9158 0.54136 40.9979 0.54162C41.1238 0.542605 41.1238 0.542605 41.2523 0.54361C41.3356 0.543964 41.4189 0.544317 41.5048 0.544681C41.6598 0.545367 41.8147 0.546213 41.9697 0.547264C42.2595 0.549159 42.5398 0.536515 42.8284 0.509328C43.3994 0.461115 43.9513 0.450838 44.5216 0.509328C45.0356 0.561649 45.5476 0.554641 46.0636 0.548507C46.1409 0.548507 46.2182 0.548507 46.2978 0.548507C46.456 0.527706 46.6135 0.503912 46.7711 0.479638C46.9224 0.470149 46.9224 0.470149 47.1566 0.548507C47.2149 0.522851 47.2732 0.497195 47.3332 0.470761C47.6101 0.368483 47.7906 0.407748 48.0789 0.460354C48.1695 0.476314 48.2602 0.492273 48.3536 0.508716C48.4224 0.521847 48.4911 0.534978 48.5619 0.548507C48.5619 0.600224 48.5619 0.65194 48.5619 0.705224C48.8816 0.667794 49.1873 0.629566 49.4988 0.548507C49.5761 0.548507 49.6534 0.548507 49.7331 0.548507C49.7816 0.547598 49.8301 0.546689 49.8801 0.545753C50.7418 0.535205 51.6126 0.586153 52.4672 0.69849C52.6385 0.705952 52.7686 0.669586 52.9341 0.626866C53.0512 0.625375 53.1684 0.62726 53.2854 0.631763C53.6816 0.637654 54.0487 0.576208 54.4361 0.496779C54.6603 0.469088 54.8247 0.491691 55.0421 0.548507C55.0421 0.600224 55.0421 0.65194 55.0421 0.705224C55.1967 0.705224 55.3513 0.705224 55.5105 0.705224C55.5105 0.653507 55.5105 0.601791 55.5105 0.548507C55.5772 0.555073 55.644 0.561639 55.7127 0.568403C55.8421 0.580373 55.8421 0.580373 55.9741 0.592584C56.1032 0.604857 56.1032 0.604857 56.2348 0.617377C56.305 0.620508 56.3751 0.62364 56.4474 0.626866C56.4732 0.601007 56.4989 0.575149 56.5255 0.548507C56.7092 0.544786 56.8931 0.5456 57.0769 0.548507C57.5774 0.553188 58.0462 0.532865 58.5359 0.421175C58.8077 0.37571 59.0004 0.46229 59.2581 0.548507C59.394 0.54794 59.5299 0.542282 59.6655 0.533509C59.7447 0.529014 59.8239 0.524519 59.9055 0.519888C60.0725 0.509582 60.2394 0.498971 60.4063 0.488055C60.4855 0.483661 60.5647 0.479268 60.6463 0.474741C60.7188 0.470138 60.7913 0.465536 60.8661 0.460794C61.0538 0.470149 61.0538 0.470149 61.288 0.626866C61.4448 0.605015 61.6009 0.577951 61.7564 0.548507C61.9826 0.536599 62.2083 0.537536 62.4347 0.538713C62.4939 0.53841 62.5532 0.538107 62.6142 0.537794C62.8688 0.538246 63.0747 0.545507 63.3179 0.626866C63.4812 0.632486 63.6446 0.633444 63.808 0.631763C63.9045 0.631157 64.0009 0.630551 64.1003 0.629927C64.3038 0.627889 64.5074 0.625848 64.7109 0.623805C64.8075 0.623199 64.904 0.622593 65.0035 0.621968C65.092 0.621059 65.1804 0.62015 65.2716 0.619214C65.4709 0.625778 65.6254 0.656035 65.8163 0.705224C65.9467 0.68583 65.9467 0.68583 66.0798 0.666045C66.6847 0.578658 67.3287 0.644163 67.9194 0.793377C68.2783 0.883089 68.6088 0.881994 68.9392 0.695429C69.2449 0.561208 69.5723 0.681929 69.8761 0.783582C69.9019 0.706007 69.9276 0.628433 69.9542 0.548507C70.0057 0.548507 70.0572 0.548507 70.1103 0.548507C70.1103 0.600224 70.1103 0.65194 70.1103 0.705224C70.2102 0.693911 70.31 0.682598 70.4129 0.670942C70.8062 0.627011 71.1999 0.587294 71.5937 0.548507C71.5937 0.600224 71.5937 0.65194 71.5937 0.705224C71.6453 0.705224 71.6968 0.705224 71.7499 0.705224C71.7756 0.653507 71.8014 0.601791 71.828 0.548507C72.0532 0.589616 72.2595 0.640891 72.4769 0.715019C72.8218 0.797139 73.041 0.756813 73.3894 0.705224C73.4942 0.728586 73.5986 0.753997 73.7017 0.783582C73.7432 0.771562 73.7847 0.759542 73.8274 0.747158C74.0968 0.686629 74.3641 0.697082 74.6386 0.700327C74.722 0.700857 74.7219 0.700857 74.807 0.701398C74.959 0.702395 75.1111 0.703793 75.2632 0.705224C75.6474 0.705224 76.0087 0.63849 76.387 0.575137C76.7494 0.540856 77.0679 0.591695 77.42 0.67584C77.6342 0.709785 77.7853 0.674396 77.9958 0.626866C78.1259 0.626866 78.256 0.626866 78.3862 0.626866C78.4119 0.601007 78.4377 0.575149 78.4642 0.548507C78.7205 0.526306 78.9781 0.529816 79.2352 0.528918C79.3098 0.528609 79.3844 0.528299 79.4613 0.527981C79.938 0.531928 80.3579 0.574807 80.8095 0.739812C80.977 0.803317 80.977 0.803317 81.1968 0.705224C81.365 0.7268 81.5325 0.753702 81.6994 0.783582C82.1615 0.856401 82.5614 0.849988 83.0236 0.795519C83.2267 0.783582 83.2267 0.783582 83.5049 0.866838C83.8449 0.959896 84.0754 0.892981 84.4143 0.817558C84.636 0.782966 84.8024 0.79551 85.0224 0.832556C85.1875 0.863093 85.1875 0.863093 85.3347 0.86194C85.502 0.723507 85.502 0.723507 85.569 0.548507C85.6462 0.574366 85.7235 0.600224 85.8032 0.626866C85.8289 0.549291 85.8547 0.471716 85.8813 0.391791C86.4931 0.321554 87.0044 0.298242 87.5989 0.470149C87.3061 0.773787 87.3061 0.773787 87.1304 0.86194C87.2077 0.86194 87.285 0.86194 87.3647 0.86194C87.4211 0.862849 87.4776 0.863758 87.5358 0.864695C87.5968 0.865402 87.6579 0.866109 87.7209 0.866838C87.7822 0.867747 87.8435 0.868656 87.9066 0.869592C88.0724 0.872593 88.0724 0.872593 88.2235 0.783582C88.1719 0.731866 88.1204 0.680149 88.0673 0.626866C88.0931 0.549291 88.1188 0.471716 88.1454 0.391791C88.8081 0.328679 89.4363 0.303796 90.0972 0.391791C90.123 0.495224 90.1488 0.598657 90.1753 0.705224C90.073 0.733529 89.9705 0.761156 89.8679 0.78848C89.7823 0.811661 89.7823 0.811661 89.695 0.835311C89.6474 0.844099 89.5998 0.852886 89.5507 0.86194C89.525 0.836082 89.4992 0.810224 89.4726 0.783582C89.3165 0.780176 89.1603 0.780448 89.0042 0.783582C88.8481 0.783582 88.6919 0.783582 88.5358 0.783582C88.5358 0.835299 88.5358 0.887015 88.5358 0.940299C88.6659 0.966418 88.796 0.992537 88.9261 1.01866C89.0227 1.0429 89.0227 1.0429 89.1213 1.06763C89.3171 1.10843 89.3171 1.10843 89.5117 1.05784C89.7069 1.01866 89.7069 1.01866 89.9167 1.06273C90.0061 1.0797 90.0061 1.0797 90.0972 1.09701C90.1488 1.0453 90.2003 0.993582 90.2534 0.940299C90.3897 0.956712 90.5259 0.974202 90.6614 0.9957C91.1469 1.04716 91.6396 1.024 92.1272 1.01866C91.9937 0.852764 91.9937 0.852764 91.8149 0.705224C91.6396 0.689942 91.6396 0.689942 91.4635 0.734608C91.1817 0.791759 91.0481 0.777444 90.7999 0.626866C90.8243 0.475047 90.8243 0.475047 90.878 0.313433C91.1663 0.216972 91.4152 0.245124 91.7124 0.269356C91.7946 0.275493 91.7946 0.275493 91.8785 0.281753C92.0134 0.29189 92.1484 0.302606 92.2833 0.313433C92.2833 0.626866 92.2833 0.626866 92.2052 0.783582C92.231 0.835299 92.2568 0.887015 92.2833 0.940299C92.3493 0.925753 92.4154 0.911208 92.4834 0.896222C92.7734 0.859175 93.0117 0.888531 93.2983 0.940299C93.2467 0.888582 93.1952 0.836866 93.1421 0.783582C93.0906 0.80944 93.0391 0.835299 92.986 0.86194C92.986 0.810224 92.986 0.758508 92.986 0.705224C92.8314 0.705224 92.6768 0.705224 92.5175 0.705224C92.4918 0.627649 92.466 0.550075 92.4395 0.470149C92.6225 0.30005 92.7148 0.236541 92.968 0.226504C93.0464 0.235797 93.1248 0.24509 93.2056 0.254664C93.2884 0.263654 93.3712 0.272644 93.4566 0.281906C93.6354 0.306197 93.8135 0.335666 93.9912 0.367304C94.2325 0.409758 94.2325 0.409758 94.4361 0.316188C94.7891 0.209154 95.113 0.212223 95.4795 0.215485C95.5472 0.214879 95.615 0.214273 95.6849 0.213649C96.0906 0.21488 96.4275 0.259632 96.8116 0.391791C96.8164 0.464517 96.8164 0.464517 96.8214 0.538713C96.8439 0.593661 96.8664 0.64861 96.8897 0.705224C97.1236 0.807447 97.1236 0.807447 97.3581 0.86194C97.3839 0.810224 97.4096 0.758508 97.4362 0.705224C97.3331 0.679366 97.2301 0.653507 97.1239 0.626866C97.1239 0.549291 97.1239 0.471716 97.1239 0.391791C97.55 0.19935 97.7906 0.234914 98.2169 0.391791C98.334 0.558302 98.334 0.558302 98.3731 0.705224C98.3811 0.643811 98.3892 0.582397 98.3975 0.519123C98.4511 0.313433 98.4511 0.313433 98.6854 0.156716C98.8406 0.15993 98.8406 0.15993 99.0221 0.188549C99.5373 0.252436 100.042 0.222216 100.559 0.195896C100.748 0.186538 100.936 0.17754 101.125 0.16896C101.208 0.164768 101.29 0.160576 101.375 0.156257C101.574 0.156716 101.574 0.156716 101.73 0.235075C101.704 0.364366 101.679 0.493657 101.652 0.626866C101.395 0.678582 101.137 0.730299 100.871 0.783582C101.166 0.795049 101.166 0.795049 101.379 0.739506C101.588 0.702757 101.685 0.729949 101.886 0.783582C102.305 0.845273 102.717 0.864635 103.14 0.857043C103.436 0.853236 103.693 0.871799 103.98 0.945196C104.297 1.02625 104.528 0.994698 104.853 0.940299C105.774 0.908886 105.774 0.908886 106.102 1.01866C106.209 1.03371 106.317 1.04668 106.424 1.05784C106.727 1.09701 106.727 1.09701 106.805 1.17537C106.963 1.18105 107.121 1.18194 107.278 1.18027C107.408 1.17921 107.408 1.17921 107.54 1.17813C107.606 1.17722 107.673 1.17631 107.742 1.17537C107.742 1.22709 107.742 1.27881 107.742 1.33209C107.871 1.28037 108 1.22866 108.132 1.17537C108.158 1.22709 108.184 1.27881 108.21 1.33209C108.777 1.33209 109.344 1.33209 109.928 1.33209C109.928 1.28037 109.928 1.22866 109.928 1.17537C110.005 1.17537 110.083 1.17537 110.162 1.17537C110.188 1.22709 110.214 1.27881 110.24 1.33209C110.292 1.30623 110.343 1.28037 110.396 1.25373C110.698 1.15289 110.938 1.16459 111.255 1.17537C111.255 1.22709 111.255 1.27881 111.255 1.33209C111.307 1.35795 111.358 1.38381 111.411 1.41045C111.386 1.43631 111.36 1.46216 111.333 1.48881C111.411 1.51466 111.488 1.54052 111.568 1.56716C111.568 1.48959 111.568 1.41201 111.568 1.33209C111.906 1.33209 112.244 1.33209 112.583 1.33209C112.583 1.38381 112.583 1.43552 112.583 1.48881C112.795 1.66956 112.795 1.66956 112.988 1.61614C113.034 1.59998 113.081 1.58382 113.129 1.56716C113.129 1.48959 113.129 1.41201 113.129 1.33209C113.438 1.33209 113.747 1.33209 114.066 1.33209C114.117 1.43552 114.169 1.53896 114.222 1.64552C114.274 1.64552 114.325 1.64552 114.378 1.64552C114.378 1.59381 114.378 1.54209 114.378 1.48881C114.327 1.48881 114.275 1.48881 114.222 1.48881C114.222 1.43709 114.222 1.38537 114.222 1.33209C114.377 1.33209 114.531 1.33209 114.691 1.33209C114.716 1.40966 114.742 1.48724 114.769 1.56716C114.82 1.56716 114.872 1.56716 114.925 1.56716C114.976 1.46373 115.028 1.3603 115.081 1.25373C115.53 1.38106 115.53 1.38106 115.705 1.64552C116.028 1.77246 116.382 1.72589 116.723 1.71898C116.955 1.72388 116.955 1.72388 117.133 1.76245C117.452 1.82225 117.768 1.81352 118.092 1.81203C118.158 1.81234 118.224 1.81264 118.293 1.81295C118.357 1.81285 118.421 1.81275 118.487 1.81265C118.545 1.81256 118.603 1.81247 118.663 1.81238C118.831 1.80747 118.831 1.80747 118.997 1.75812C119.196 1.71075 119.275 1.78581 119.453 1.8806C119.664 1.92298 119.862 1.95896 120.078 1.95896C120.198 1.98345 120.319 2.00977 120.439 2.03731C120.503 2.05186 120.566 2.0664 120.632 2.08139C120.681 2.0927 120.73 2.10402 120.78 2.11567C120.78 2.2191 120.78 2.32254 120.78 2.4291C120.729 2.4291 120.677 2.4291 120.624 2.4291C120.624 2.48082 120.624 2.53254 120.624 2.58582C120.676 2.58582 120.727 2.58582 120.78 2.58582C120.806 2.68925 120.832 2.79269 120.858 2.89925C121.168 2.89925 121.477 2.89925 121.795 2.89925C121.795 2.84754 121.795 2.79582 121.795 2.74254C121.92 2.71614 122.046 2.69008 122.171 2.66418C122.241 2.64963 122.31 2.63509 122.382 2.6201C122.717 2.56084 123.026 2.61083 123.36 2.65469C123.41 2.65782 123.461 2.66095 123.513 2.66418C123.539 2.63832 123.564 2.61246 123.591 2.58582C123.776 2.56623 123.776 2.56623 123.981 2.58582C124.123 2.70336 124.123 2.70336 124.216 2.8209C124.267 2.79504 124.319 2.76918 124.372 2.74254C124.518 2.72471 124.664 2.71044 124.811 2.69846C124.889 2.6919 124.967 2.68533 125.048 2.67857C125.108 2.67382 125.168 2.66907 125.23 2.66418C125.23 2.61246 125.23 2.56075 125.23 2.50746C125.319 2.52039 125.408 2.53332 125.499 2.54664C125.766 2.59291 125.766 2.59291 126.001 2.54603C126.563 2.4039 127.012 2.46665 127.573 2.58582C127.843 2.636 128.077 2.66418 128.353 2.66418C128.379 2.5866 128.405 2.50903 128.432 2.4291C128.457 2.48082 128.483 2.53254 128.51 2.58582C128.561 2.58582 128.613 2.58582 128.666 2.58582C128.691 2.68925 128.717 2.79269 128.744 2.89925C128.792 2.88471 128.84 2.87016 128.89 2.85518C129.056 2.8209 129.056 2.8209 129.212 2.89925C129.261 3.06087 129.261 3.06087 129.29 3.21269C129.347 3.21107 129.403 3.20945 129.461 3.20779C129.681 3.21269 129.681 3.21269 129.871 3.25676C130.075 3.30328 130.075 3.30328 130.296 3.25187C130.693 3.18806 131.051 3.23879 131.398 3.44776C131.373 3.52534 131.347 3.60291 131.32 3.68284C131.372 3.70869 131.423 3.73455 131.476 3.76119C131.476 3.65776 131.476 3.55433 131.476 3.44776C131.928 3.43955 132.358 3.44835 132.804 3.52612C132.752 3.68127 132.701 3.83642 132.648 3.99627C132.047 4.10584 131.433 4.11583 130.827 4.03545C130.319 3.96831 129.802 3.99017 129.29 3.99627C129.265 4.0997 129.239 4.20313 129.212 4.3097C129.135 4.28384 129.058 4.25799 128.978 4.23134C128.978 4.12791 128.978 4.02448 128.978 3.91791C128.875 3.91791 128.772 3.91791 128.666 3.91791C128.588 3.89205 128.511 3.86619 128.432 3.83955C128.406 3.89127 128.38 3.94299 128.353 3.99627C128.147 3.97041 127.941 3.94455 127.729 3.91791C127.729 3.96963 127.729 4.02134 127.729 4.07463C127.445 4.07463 127.162 4.07463 126.87 4.07463C126.844 4.02291 126.819 3.97119 126.792 3.91791C126.644 3.88146 126.644 3.88146 126.475 3.86894C126.373 3.85924 126.272 3.84954 126.167 3.83955C126.142 3.89127 126.116 3.94299 126.089 3.99627C126.038 3.97041 125.986 3.94455 125.933 3.91791C125.959 4.02134 125.985 4.12478 126.011 4.23134C126.166 4.2572 126.32 4.28306 126.48 4.3097C126.48 4.36142 126.48 4.41313 126.48 4.46642C126.557 4.49228 126.634 4.51813 126.714 4.54478C126.688 4.64821 126.662 4.75164 126.636 4.85821C126.95 4.91273 127.188 4.94925 127.495 4.85821C127.546 4.88407 127.598 4.90993 127.651 4.93657C127.677 4.88485 127.702 4.83313 127.729 4.77985C127.652 4.75399 127.574 4.72813 127.495 4.70149C127.469 4.62392 127.443 4.54634 127.417 4.46642C127.52 4.44056 127.623 4.4147 127.729 4.38806C127.729 4.46563 127.729 4.54321 127.729 4.62313C127.806 4.64899 127.883 4.67485 127.963 4.70149C128.015 4.75321 128.066 4.80493 128.119 4.85821C128.119 4.80649 128.119 4.75478 128.119 4.70149C128.467 4.66271 128.467 4.66271 128.822 4.62313C128.822 4.5197 128.822 4.41627 128.822 4.3097C129.012 4.36847 129.012 4.36847 129.212 4.46642C129.281 4.62313 129.281 4.62313 129.29 4.77985C129.265 4.83157 129.239 4.88328 129.212 4.93657C129.135 4.93657 129.058 4.93657 128.978 4.93657C128.978 4.98828 128.978 5.04 128.978 5.09328C129.274 5.01745 129.274 5.01745 129.525 4.85821C129.528 4.72765 129.528 4.59697 129.525 4.46642C129.576 4.46642 129.628 4.46642 129.681 4.46642C129.706 4.59571 129.732 4.725 129.759 4.85821C129.862 4.88407 129.965 4.90993 130.071 4.93657C130.071 4.88485 130.071 4.83313 130.071 4.77985C129.955 4.81864 129.955 4.81864 129.837 4.85821C129.837 4.70306 129.837 4.54791 129.837 4.38806C130.12 4.41392 130.404 4.43978 130.696 4.46642C130.67 4.54399 130.644 4.62157 130.618 4.70149C130.677 4.68695 130.737 4.6724 130.798 4.65742C131.008 4.62313 131.008 4.62313 131.242 4.70149C131.432 4.66573 131.605 4.60629 131.789 4.54478C131.898 4.53955 132.007 4.53809 132.116 4.53988C132.263 4.5423 132.263 4.5423 132.413 4.54478C132.413 4.62235 132.413 4.69993 132.413 4.77985C132.128 4.9629 131.886 4.94272 131.554 4.93657C131.503 4.96243 131.451 4.98828 131.398 5.01493C131.476 5.04078 131.553 5.06664 131.633 5.09328C131.633 5.145 131.633 5.19672 131.633 5.25C131.729 5.23167 131.729 5.23167 131.827 5.21296C131.911 5.19771 131.995 5.18246 132.081 5.16674C132.165 5.15129 132.248 5.13584 132.334 5.11991C132.557 5.09472 132.672 5.11351 132.882 5.17164C133.003 5.16122 133.123 5.14617 133.243 5.12757C133.662 5.08083 134.045 5.1004 134.443 5.25C134.648 5.441 134.648 5.441 134.755 5.64179C134.755 5.71937 134.755 5.79694 134.755 5.87687C134.908 5.86161 134.908 5.86161 135.068 5.79851C135.176 5.6303 135.224 5.52906 135.224 5.32836C135.266 5.33401 135.308 5.33967 135.351 5.3455C135.888 5.40937 136.415 5.40459 136.955 5.38651C137.296 5.40957 137.497 5.49081 137.8 5.64179C137.8 5.74522 137.8 5.84866 137.8 5.95522C137.43 6.03358 137.43 6.03358 137.254 6.03358C137.228 6.11116 137.202 6.18873 137.176 6.26866C137.098 6.26866 137.021 6.26866 136.942 6.26866C136.919 6.31714 136.896 6.36563 136.873 6.41558C136.785 6.58209 136.785 6.58209 136.629 6.73881C136.483 6.77401 136.483 6.77401 136.317 6.79268C136.262 6.79944 136.207 6.80621 136.151 6.81319C136.005 6.81716 136.005 6.81716 135.849 6.73881C135.692 6.76083 135.535 6.78666 135.38 6.81716C135.38 6.71373 135.38 6.6103 135.38 6.50373C135.688 6.48967 135.895 6.4964 136.161 6.66045C136.135 6.55702 136.109 6.45358 136.083 6.34701C135.799 6.34701 135.516 6.34701 135.224 6.34701C135.224 6.47631 135.224 6.6056 135.224 6.73881C134.914 6.82945 134.608 6.86995 134.287 6.89552C134.21 6.84381 134.132 6.79209 134.053 6.73881C134.053 6.66123 134.053 6.58366 134.053 6.50373C134.552 6.33014 134.553 6.33014 134.79 6.41558C134.85 6.45921 134.85 6.45921 134.912 6.50373C134.937 6.45201 134.963 6.4003 134.99 6.34701C135.015 6.32116 135.041 6.2953 135.068 6.26866C134.968 6.27027 134.868 6.27189 134.765 6.27355C134.463 6.27845 134.463 6.27845 134.287 6.1903C134.184 6.1903 134.081 6.1903 133.975 6.1903C133.975 6.11272 133.975 6.03515 133.975 5.95522C133.923 5.98108 133.872 6.00694 133.819 6.03358C133.846 6.07883 133.873 6.12409 133.902 6.17071C133.975 6.34702 133.975 6.34702 133.96 6.50863C133.888 6.68063 133.802 6.77396 133.662 6.89552C133.651 6.83573 133.64 6.77593 133.628 6.71432C133.587 6.49733 133.587 6.49733 133.506 6.26866C133.463 6.35754 133.419 6.44643 133.375 6.53801C133.224 6.80696 133.224 6.80696 132.979 6.89062C132.921 6.89224 132.863 6.89386 132.804 6.89552C132.775 7.21258 132.775 7.21258 132.96 7.44403C132.935 7.65045 132.896 7.8066 132.804 7.99254C133.297 8.16101 133.783 8.23943 134.287 8.0709C134.501 8.10659 134.702 8.16909 134.912 8.22761C134.912 8.1759 134.912 8.12418 134.912 8.0709C134.963 8.0709 135.015 8.0709 135.068 8.0709C135.068 8.12261 135.068 8.17433 135.068 8.22761C135.111 8.22958 135.154 8.23154 135.199 8.23356C135.396 8.24268 135.593 8.25228 135.79 8.26189C135.892 8.26652 135.892 8.26652 135.996 8.27123C136.062 8.27451 136.128 8.2778 136.196 8.28118C136.257 8.28405 136.317 8.28692 136.38 8.28988C136.551 8.30597 136.551 8.30597 136.717 8.34945C136.944 8.40338 137.057 8.34701 137.254 8.22761C137.361 7.9902 137.361 7.9902 137.41 7.75746C137.462 7.75746 137.513 7.75746 137.566 7.75746C137.565 7.84635 137.563 7.93524 137.561 8.02682C137.534 8.29153 137.534 8.29153 137.644 8.38433C138.137 8.41681 138.137 8.41681 138.581 8.22761C138.581 8.27933 138.581 8.33105 138.581 8.38433C138.675 8.3819 138.675 8.3819 138.771 8.37943C138.971 8.38433 138.971 8.38433 139.05 8.46269C139.177 8.49567 139.306 8.52443 139.435 8.55084C139.505 8.56559 139.575 8.58033 139.647 8.59553C139.832 8.63699 139.832 8.63699 139.986 8.54105C140.196 8.54399 140.402 8.55214 140.611 8.56553C140.669 8.56831 140.726 8.57109 140.785 8.57395C141.217 8.60041 141.217 8.60041 141.392 8.77612C141.476 8.73491 141.476 8.73491 141.563 8.69286C141.873 8.58901 142.061 8.64655 142.353 8.78102C142.418 8.81738 142.418 8.81738 142.485 8.85448C142.536 8.80276 142.588 8.75105 142.641 8.69776C142.641 8.74948 142.641 8.80119 142.641 8.85448C142.734 8.84155 142.828 8.82862 142.924 8.8153C143.196 8.78084 143.46 8.76924 143.734 8.77612C143.734 8.82784 143.734 8.87955 143.734 8.93284C143.631 8.98455 143.528 9.03627 143.422 9.08955C143.422 9.19299 143.422 9.29642 143.422 9.40299C143.551 9.35127 143.679 9.29955 143.812 9.24627C143.812 9.32384 143.812 9.40142 143.812 9.48134C144.147 9.48134 144.482 9.48134 144.827 9.48134C144.801 9.35205 144.775 9.22276 144.749 9.08955C144.99 8.92819 145.039 8.91411 145.31 8.92304C145.408 8.92627 145.507 8.92951 145.608 8.93284C145.608 8.98455 145.608 9.03627 145.608 9.08955C145.708 9.08794 145.807 9.08632 145.91 9.08465C146.213 9.07976 146.213 9.07976 146.389 9.16791C146.389 9.21963 146.389 9.27134 146.389 9.32463C146.49 9.32301 146.591 9.32139 146.696 9.31973C146.802 9.31805 146.908 9.31903 147.013 9.32463C147.039 9.35049 147.065 9.37634 147.091 9.40299C147.143 9.32541 147.194 9.24784 147.247 9.16791C147.325 9.19377 147.402 9.21963 147.482 9.24627C147.482 9.37556 147.482 9.50485 147.482 9.63806C147.327 9.65336 147.171 9.66867 147.016 9.68397C146.834 9.71067 146.834 9.71067 146.623 9.87313C146.428 9.88293 146.428 9.88293 146.232 9.87313C146.155 9.87313 146.078 9.87313 145.998 9.87313C145.998 9.7697 145.998 9.66627 145.998 9.5597C145.882 9.59849 145.882 9.59849 145.764 9.63806C145.712 9.6122 145.661 9.58634 145.608 9.5597C145.582 9.61142 145.556 9.66313 145.53 9.71642C145.375 9.77338 145.219 9.82598 145.061 9.87313C145.061 9.95071 145.061 10.0283 145.061 10.1082C145.061 10.2116 145.061 10.3151 145.061 10.4216C144.798 10.3795 144.538 10.3346 144.281 10.2649C144.281 10.3942 144.281 10.5235 144.281 10.6567C144.337 10.6454 144.393 10.6341 144.451 10.6224C144.524 10.6079 144.596 10.5933 144.671 10.5784C144.737 10.5622 144.803 10.546 144.871 10.5294C145.069 10.4988 145.183 10.5257 145.374 10.5784C145.425 10.5525 145.477 10.5266 145.53 10.5C145.712 10.5 145.894 10.5 146.076 10.5C146.153 10.4741 146.231 10.4483 146.31 10.4216C146.336 10.4734 146.362 10.5251 146.389 10.5784C146.414 10.5008 146.44 10.4232 146.467 10.3433C146.544 10.3433 146.621 10.3433 146.701 10.3433C146.701 10.4209 146.701 10.4984 146.701 10.5784C146.881 10.5784 147.061 10.5784 147.247 10.5784C147.247 10.5008 147.247 10.4232 147.247 10.3433C147.379 10.2013 147.379 10.2013 147.56 10.1082C147.774 10.1719 147.774 10.1719 147.95 10.2649C147.976 10.2132 148.002 10.1615 148.028 10.1082C148.08 10.1082 148.131 10.1082 148.184 10.1082C148.184 10.1599 148.184 10.2116 148.184 10.2649C148.313 10.3166 148.442 10.3684 148.575 10.4216C148.575 10.3699 148.575 10.3182 148.575 10.2649C148.678 10.2649 148.781 10.2649 148.887 10.2649C148.938 10.3684 148.99 10.4718 149.043 10.5784C149.267 10.5334 149.344 10.5109 149.511 10.3433C149.78 10.3335 149.78 10.3335 150.058 10.3433C150.135 10.3433 150.213 10.3433 150.292 10.3433C150.48 10.3846 150.656 10.4388 150.839 10.5C150.839 10.4483 150.839 10.3966 150.839 10.3433C151.133 10.2449 151.258 10.3142 151.541 10.4216C151.527 10.4717 151.512 10.5218 151.497 10.5735C151.486 10.6268 151.475 10.6801 151.463 10.7351C151.489 10.7609 151.515 10.7868 151.541 10.8134C151.578 10.6995 151.578 10.6995 151.615 10.5833C151.776 10.3433 151.776 10.3433 151.926 10.2891C152.352 10.2309 152.695 10.2967 153.103 10.4216C153.368 10.4989 153.536 10.4894 153.806 10.4216C153.857 10.5509 153.909 10.6802 153.962 10.8134C153.884 10.8393 153.807 10.8651 153.727 10.8918C153.702 10.9694 153.676 11.0469 153.649 11.1269C153.624 11.0234 153.598 10.92 153.571 10.8134C153.525 10.8393 153.478 10.8651 153.43 10.8918C153.259 10.9701 153.259 10.9701 153.025 10.9701C152.973 10.9184 152.922 10.8667 152.869 10.8134C152.843 10.9686 152.817 11.1237 152.791 11.2836C152.868 11.3353 152.945 11.387 153.025 11.4403C153.025 11.3627 153.025 11.2851 153.025 11.2052C153.068 11.2278 153.112 11.2505 153.157 11.2738C153.344 11.3652 153.534 11.443 153.727 11.5187C153.727 11.4669 153.727 11.4152 153.727 11.3619C153.805 11.3619 153.882 11.3619 153.962 11.3619C153.962 11.4395 153.962 11.5171 153.962 11.597C154.065 11.597 154.168 11.597 154.274 11.597C154.351 11.597 154.429 11.597 154.508 11.597C154.534 11.6487 154.56 11.7004 154.586 11.7537C154.612 11.702 154.638 11.6503 154.664 11.597C154.742 11.597 154.819 11.597 154.899 11.597C154.899 11.5453 154.899 11.4936 154.899 11.4403C155.027 11.4403 155.156 11.4403 155.289 11.4403C155.274 11.5872 155.274 11.5872 155.211 11.7537C155.011 11.8517 155.011 11.8517 154.82 11.9104C154.872 11.9363 154.924 11.9622 154.977 11.9888C154.977 12.0664 154.977 12.144 154.977 12.2239C154.866 12.2504 154.755 12.2764 154.645 12.3022C154.583 12.3168 154.522 12.3313 154.458 12.3463C154.193 12.3956 153.967 12.3816 153.703 12.3316C153.382 12.2988 153.173 12.3591 152.869 12.459C152.791 12.459 152.714 12.459 152.634 12.459C152.866 12.5107 153.098 12.5624 153.337 12.6157C153.286 12.7191 153.234 12.8225 153.181 12.9291C152.915 12.9291 152.663 12.8906 152.4 12.8507C152.374 12.9025 152.349 12.9542 152.322 13.0075C152.382 13.0026 152.441 12.9978 152.503 12.9928C152.712 13.0075 152.712 13.0075 152.854 13.125C152.885 13.1638 152.915 13.2026 152.947 13.2425C152.972 13.1908 152.998 13.1391 153.025 13.0858C153.337 13.0858 153.337 13.0858 153.542 13.1299C153.728 13.1836 153.728 13.1836 153.884 13.0858C154.084 13.0804 154.283 13.086 154.484 13.0907C154.666 13.0985 154.666 13.0985 154.82 13.0075C154.82 12.9299 154.82 12.8523 154.82 12.7724C155.269 12.9193 155.269 12.9193 155.445 13.0075C155.445 13.085 155.445 13.1626 155.445 13.2425C155.609 13.2731 155.773 13.3022 155.938 13.3307C156.029 13.3471 156.121 13.3634 156.215 13.3803C156.473 13.4257 156.473 13.4257 156.694 13.2425C156.72 13.346 156.746 13.4494 156.772 13.556C156.824 13.556 156.875 13.556 156.928 13.556C156.928 13.6077 156.928 13.6594 156.928 13.7127C156.782 13.7617 156.782 13.7617 156.616 13.791C156.565 13.7393 156.513 13.6876 156.46 13.6343C156.408 13.6343 156.357 13.6343 156.304 13.6343C156.33 13.686 156.355 13.7378 156.382 13.791C156.538 13.8188 156.538 13.8188 156.719 13.8253C157.028 13.8526 157.153 13.9129 157.397 14.1045C157.834 14.2634 157.834 14.2634 158.267 14.1798C158.315 14.1549 158.363 14.1301 158.412 14.1045C158.542 14.1828 158.672 14.2612 158.802 14.3396C159.241 14.4373 159.241 14.4373 159.661 14.3396C159.847 14.359 160.033 14.3843 160.217 14.413C160.317 14.4283 160.417 14.4435 160.52 14.4592C160.598 14.4715 160.675 14.4837 160.754 14.4963C160.728 14.5738 160.703 14.6514 160.676 14.7313C160.521 14.6796 160.367 14.6279 160.208 14.5746C160.208 14.6781 160.208 14.7815 160.208 14.8881C159.891 14.965 159.596 14.9728 159.271 14.9664C159.271 14.8888 159.271 14.8113 159.271 14.7313C159.171 14.7475 159.071 14.7637 158.968 14.7803C158.798 14.8079 158.798 14.8079 158.646 14.8097C158.595 14.758 158.543 14.7063 158.49 14.653C158.446 14.6931 158.403 14.7332 158.358 14.7745C158.178 14.8881 158.178 14.8881 157.987 14.8767C157.921 14.8595 157.855 14.8422 157.787 14.8244C157.533 14.7602 157.352 14.7313 157.085 14.7313C156.998 14.7297 156.911 14.7281 156.821 14.7264C156.549 14.7234 156.549 14.7234 156.327 14.7705C156.02 14.8172 155.725 14.8183 155.416 14.8146C155.358 14.8142 155.301 14.8139 155.242 14.8135C155.101 14.8126 154.961 14.8112 154.82 14.8097C154.738 15.0159 154.738 15.0159 154.742 15.1231C154.796 15.17 154.849 15.2169 154.903 15.2652C155.055 15.4366 155.055 15.4366 155.064 15.5982C154.93 15.8301 154.751 15.8876 154.508 15.9851C154.371 15.9851 154.234 15.9845 154.097 15.9823C153.728 15.9783 153.389 15.9994 153.025 16.0634C152.973 16.0376 152.922 16.0117 152.869 15.9851C152.685 16.0327 152.503 16.0847 152.322 16.1418C152.322 16.0642 152.322 15.9866 152.322 15.9067C151.807 15.9067 151.292 15.9067 150.761 15.9067C150.761 15.8291 150.761 15.7516 150.761 15.6716C150.735 15.7492 150.709 15.8268 150.683 15.9067C150.344 15.9067 150.006 15.9067 149.668 15.9067C149.509 15.9644 149.356 16.0308 149.202 16.098C149.011 16.1506 148.912 16.1416 148.731 16.0634C148.705 15.9859 148.679 15.9083 148.653 15.8284C148.472 15.8801 148.292 15.9318 148.106 15.9851C148.106 15.9075 148.106 15.8299 148.106 15.75C147.926 15.75 147.745 15.75 147.56 15.75C147.55 15.8001 147.54 15.8502 147.53 15.9018C147.506 15.9818 147.506 15.9818 147.482 16.0634C147.43 16.0893 147.378 16.1152 147.325 16.1418C147.282 16.1161 147.238 16.0905 147.193 16.064C146.934 15.9505 146.747 16.0058 146.471 16.0536C146.153 16.1077 145.853 16.1529 145.53 16.1418C145.53 16.0901 145.53 16.0384 145.53 15.9851C145.167 16.0231 145.167 16.0231 144.827 16.1418C144.827 16.0901 144.827 16.0384 144.827 15.9851C144.732 16.0125 144.637 16.04 144.539 16.0683C144.271 16.1367 144.081 16.1478 143.812 16.0634C143.812 16.1151 143.812 16.1669 143.812 16.2201C142.933 16.4944 142.933 16.4944 142.599 16.3983C142.454 16.3181 142.313 16.2304 142.173 16.1418C142.095 16.1677 142.018 16.1935 141.938 16.2201C141.79 16.1984 141.642 16.1715 141.494 16.1418C140.968 16.053 140.493 16.0735 139.965 16.1191C139.685 16.141 139.409 16.1454 139.128 16.1418C139.153 16.2452 139.179 16.3487 139.206 16.4552C139.128 16.4811 139.051 16.5069 138.971 16.5336C138.942 16.4584 138.943 16.4584 138.913 16.3818C138.832 16.2086 138.832 16.2086 138.673 16.1726C138.391 16.1215 138.11 16.1085 137.825 16.0928C137.762 16.0892 137.699 16.0855 137.634 16.0818C137.306 16.0653 136.995 16.062 136.668 16.1075C136.578 16.1188 136.488 16.1301 136.395 16.1418C136.344 16.0901 136.292 16.0384 136.239 15.9851C136.197 16.0125 136.155 16.04 136.112 16.0683C135.867 16.1653 135.713 16.1166 135.458 16.0634C135.355 16.0634 135.252 16.0634 135.146 16.0634C134.951 16.0532 134.755 16.0417 134.56 16.0292C134.458 16.0228 134.356 16.0164 134.25 16.0099C134.041 15.991 133.862 15.9667 133.662 15.9067C133.604 15.8922 133.547 15.8776 133.487 15.8626C133.442 15.8513 133.397 15.84 133.35 15.8284C133.35 15.7766 133.35 15.7249 133.35 15.6716C133.257 15.7056 133.257 15.7056 133.162 15.7402C133.038 15.7838 133.038 15.7838 132.911 15.8284C132.829 15.8574 132.748 15.8865 132.664 15.9165C132.235 16.0338 131.957 15.9941 131.554 15.8284C131.424 15.8252 131.294 15.825 131.164 15.8284C131.113 15.8122 131.061 15.796 131.008 15.7794C130.79 15.7385 130.657 15.8138 130.461 15.9067C130.461 15.855 130.461 15.8033 130.461 15.75C130.384 15.7759 130.307 15.8017 130.227 15.8284C130.122 15.8054 130.018 15.7789 129.915 15.75C129.8 15.7389 129.685 15.7308 129.57 15.7252C129.504 15.7219 129.438 15.7186 129.371 15.7153C129.302 15.7122 129.234 15.7091 129.163 15.7059C129.097 15.7025 129.03 15.6992 128.962 15.6957C128.629 15.6798 128.299 15.671 127.966 15.6753C127.472 15.678 126.987 15.6134 126.498 15.55C126.429 15.5421 126.359 15.5343 126.287 15.5263C126.225 15.5185 126.162 15.5107 126.098 15.5026C125.885 15.5185 125.842 15.6 125.699 15.75C125.517 15.7254 125.334 15.699 125.152 15.6716C125.07 15.6975 124.988 15.7234 124.904 15.75C124.397 15.8834 123.893 15.7843 123.381 15.7059C123.116 15.6708 122.865 15.6704 122.599 15.6741C122.327 15.6704 122.064 15.6325 121.795 15.5933C121.795 15.6709 121.795 15.7484 121.795 15.8284C121.736 15.8267 121.676 15.8251 121.615 15.8235C121.397 15.8182 121.397 15.8182 121.171 15.9067C121.171 15.855 121.171 15.8033 121.171 15.75C120.548 15.5745 119.94 15.5579 119.297 15.5933C119.271 15.6191 119.245 15.645 119.219 15.6716C119.089 15.675 118.959 15.6748 118.828 15.6716C118.671 15.6651 118.671 15.6651 118.521 15.7108C118.36 15.75 118.36 15.75 118.126 15.75C118.05 15.7662 117.974 15.7823 117.896 15.799C117.543 15.854 117.215 15.7748 116.867 15.7087C116.678 15.6775 116.511 15.6648 116.32 15.6716C116.246 15.6716 116.172 15.6716 116.096 15.6716C116.044 15.6199 115.993 15.5682 115.94 15.5149C115.87 15.5408 115.801 15.5666 115.73 15.5933C115.491 15.6656 115.327 15.685 115.081 15.6716C114.804 15.6716 114.571 15.7383 114.305 15.8094C114.252 15.8156 114.199 15.8219 114.144 15.8284C114.092 15.7766 114.041 15.7249 113.988 15.6716C113.936 15.7234 113.885 15.7751 113.832 15.8284C113.806 15.7508 113.78 15.6732 113.754 15.5933C113.627 15.5759 113.5 15.5598 113.373 15.5443C113.302 15.5352 113.232 15.5261 113.159 15.5168C113.098 15.5162 113.036 15.5156 112.973 15.5149C112.921 15.5666 112.87 15.6184 112.817 15.6716C112.584 15.7013 112.584 15.7013 112.299 15.7157C111.896 15.7391 111.499 15.7721 111.099 15.8284C111.099 15.7766 111.099 15.7249 111.099 15.6716C111.048 15.6975 110.996 15.7234 110.943 15.75C110.838 15.7618 110.732 15.7695 110.626 15.7748C110.532 15.7797 110.532 15.7797 110.437 15.7847C110.372 15.7878 110.307 15.7909 110.24 15.7941C110.175 15.7975 110.11 15.8008 110.043 15.8043C109.64 15.825 109.239 15.8284 108.835 15.8284C108.835 15.7766 108.835 15.7249 108.835 15.6716C108.774 15.6862 108.713 15.7007 108.65 15.7157C108.445 15.75 108.445 15.75 108.288 15.6716C108.288 15.7234 108.288 15.7751 108.288 15.8284C108.185 15.8284 108.082 15.8284 107.976 15.8284C107.976 15.7766 107.976 15.7249 107.976 15.6716C107.77 15.7234 107.564 15.7751 107.352 15.8284C107.352 15.7766 107.352 15.7249 107.352 15.6716C107.236 15.6886 107.236 15.6886 107.117 15.7059C106.262 15.8284 106.262 15.8284 106.024 15.8284C105.947 15.8542 105.87 15.8801 105.79 15.9067C105.764 15.8291 105.739 15.7516 105.712 15.6716C105.377 15.6716 105.042 15.6716 104.697 15.6716C104.697 15.7234 104.697 15.7751 104.697 15.8284C104.646 15.8284 104.594 15.8284 104.541 15.8284C104.541 15.7766 104.541 15.7249 104.541 15.6716C104.488 15.6862 104.435 15.7007 104.38 15.7157C104.106 15.7567 103.877 15.7108 103.604 15.6716C103.474 15.6959 103.343 15.7222 103.214 15.75C102.468 15.8299 101.718 15.8507 100.969 15.8724C100.914 15.8741 100.86 15.8758 100.804 15.8775C99.9933 15.9021 99.1839 15.9166 98.3731 15.9067C98.2958 15.9067 98.2185 15.9067 98.1388 15.9067C98.0342 15.8827 97.93 15.857 97.8266 15.8284C97.8008 15.8801 97.775 15.9318 97.7485 15.9851C97.6763 15.9648 97.6763 15.9648 97.6027 15.9441C97.2545 15.8909 96.9183 15.9159 96.5676 15.9361C96.4969 15.9395 96.4261 15.943 96.3532 15.9465C95.9515 15.9674 95.9515 15.9673 95.5624 16.0634C95.5367 15.9859 95.5109 15.9083 95.4843 15.8284C95.399 15.8542 95.3136 15.8801 95.2257 15.9067C94.9378 15.9851 94.9378 15.9851 94.7036 15.9851C94.7036 15.9334 94.7036 15.8816 94.7036 15.8284C94.5748 15.8801 94.446 15.9318 94.3132 15.9851C94.3132 15.9334 94.3132 15.8816 94.3132 15.8284C94.2619 15.8543 94.2106 15.8802 94.1578 15.9068C93.8621 16.0053 93.5937 15.9966 93.287 15.9832C93.2269 15.9813 93.1668 15.9793 93.1049 15.9773C92.9139 15.9709 92.7231 15.9633 92.5322 15.9557C92.4023 15.9511 92.2724 15.9466 92.1426 15.9422C91.8251 15.9313 91.5077 15.9193 91.1903 15.9067C91.1645 15.9843 91.1388 16.0619 91.1122 16.1418C90.5982 16.2088 90.1006 16.2287 89.5827 16.2223C89.4249 16.2213 89.2671 16.2203 89.1093 16.2194C88.8638 16.2174 88.6183 16.2152 88.3728 16.2126C88.1337 16.2102 87.8945 16.2089 87.6553 16.2076C87.5468 16.206 87.5468 16.206 87.4361 16.2044C87.0074 16.2028 86.6207 16.2474 86.204 16.3507C86.0374 16.3769 86.0374 16.3769 85.7788 16.2985C85.409 16.1979 85.141 16.2655 84.7678 16.3313C83.8421 16.4759 82.8926 16.4638 81.958 16.4699C81.8669 16.4709 81.7759 16.472 81.682 16.473C81.5956 16.4731 81.5091 16.4732 81.4201 16.4733C81.3047 16.4738 81.3047 16.4738 81.187 16.4743C80.9368 16.453 80.7286 16.3866 80.4942 16.2985C80.4942 16.3502 80.4942 16.4019 80.4942 16.4552C80.4072 16.4536 80.3202 16.452 80.2307 16.4503C79.9607 16.4346 79.9607 16.4346 79.7915 16.5336C79.74 16.456 79.6884 16.3784 79.6353 16.2985C79.2283 16.262 79.2283 16.262 78.8445 16.3729C78.5133 16.4946 78.1797 16.5127 77.8299 16.5434C77.7591 16.5501 77.6884 16.5569 77.6155 16.5639C77.2804 16.5953 76.9563 16.6172 76.6194 16.6037C76.5061 16.6005 76.5061 16.6005 76.3904 16.5972C76.3146 16.5945 76.2388 16.5918 76.1608 16.589C76.0964 16.5966 76.0321 16.6041 75.9659 16.6119C75.9143 16.6895 75.8628 16.7671 75.8097 16.847C75.7324 16.8212 75.6551 16.7953 75.5755 16.7687C75.5755 16.7169 75.5755 16.6652 75.5755 16.6119C75.4571 16.6289 75.4571 16.6289 75.3364 16.6462C75.235 16.6608 75.1335 16.6753 75.029 16.6903C74.9388 16.7065 74.8486 16.7226 74.7557 16.7393C74.4611 16.771 74.2291 16.733 73.936 16.6903C73.3206 16.664 73.3206 16.664 72.7115 16.7325C72.5306 16.7687 72.5306 16.7687 72.2622 16.7295C71.9841 16.6903 71.7894 16.7209 71.5157 16.7687C71.4529 16.7557 71.3901 16.7428 71.3254 16.7295C71.0638 16.6783 70.8408 16.7297 70.5788 16.7687C70.5015 16.7428 70.4242 16.7169 70.3446 16.6903C70.3446 16.742 70.3446 16.7937 70.3446 16.847C70.2048 16.8644 70.0649 16.8805 69.9249 16.896C69.847 16.9051 69.7691 16.9142 69.6889 16.9235C69.6218 16.9241 69.5548 16.9247 69.4857 16.9254C69.4342 16.8737 69.3827 16.8219 69.3296 16.7687C69.2778 16.7847 69.2259 16.8008 69.1725 16.8173C69.1036 16.8384 69.0347 16.8595 68.9636 16.8813C68.8957 16.9022 68.8278 16.9231 68.7578 16.9447C68.559 17.0009 68.3615 17.0443 68.1585 17.0821C68.1585 17.0304 68.1585 16.9787 68.1585 16.9254C67.9524 16.9254 67.7463 16.9254 67.5339 16.9254C67.5339 16.9771 67.5339 17.0288 67.5339 17.0821C67.4824 17.0821 67.4308 17.0821 67.3777 17.0821C67.3777 17.0304 67.3777 16.9787 67.3777 16.9254C67.3005 16.9512 67.2232 16.9771 67.1435 17.0037C66.5575 17.1696 65.9441 17.0653 65.3478 17.0037C65.3221 17.0554 65.2963 17.1072 65.2698 17.1604C65.2182 17.1346 65.1667 17.1087 65.1136 17.0821C65.1136 17.1338 65.1136 17.1855 65.1136 17.2388C65.0457 17.2205 65.0457 17.2205 64.9764 17.2018C64.5989 17.1074 64.3279 17.0745 63.9425 17.1604C63.7863 17.1604 63.6302 17.1604 63.4741 17.1604C63.3968 17.1863 63.3195 17.2122 63.2398 17.2388C63.2398 17.1871 63.2398 17.1354 63.2398 17.0821C63.1015 17.0932 62.9633 17.1047 62.8251 17.1164C62.7096 17.1259 62.7096 17.1259 62.5918 17.1357C62.3737 17.154 62.3737 17.154 62.1468 17.2388C62.0574 17.217 62.0574 17.217 61.9663 17.1947C61.7535 17.1419 61.7535 17.1419 61.5515 17.2388C61.2307 17.3342 60.9921 17.3 60.6634 17.2615C60.4239 17.2383 60.1915 17.2357 59.951 17.2388C59.6707 17.2421 59.404 17.233 59.1263 17.1947C58.8217 17.1542 58.5491 17.1779 58.2465 17.2266C58.087 17.2388 58.087 17.2388 57.9299 17.1923C57.7715 17.1429 57.7715 17.1429 57.6292 17.2351C57.4495 17.3235 57.3339 17.3388 57.1354 17.3441C57.0744 17.3464 57.0135 17.3487 56.9506 17.3511C56.7597 17.3563 56.7597 17.3563 56.5688 17.3615C56.5078 17.3639 56.4468 17.3662 56.384 17.3686C56.3287 17.3701 56.2735 17.3715 56.2165 17.373C56.0525 17.3872 56.0525 17.3872 55.9041 17.4748C55.7114 17.5684 55.5797 17.5691 55.3666 17.5648C55.2592 17.5635 55.2592 17.5635 55.1497 17.5622C55.0385 17.5597 55.0385 17.5597 54.925 17.5571C54.7778 17.5544 54.6306 17.5521 54.4834 17.5501C54.4183 17.5487 54.3532 17.5473 54.2862 17.5458C54.1057 17.5455 54.1057 17.5455 53.9388 17.5961C53.7266 17.6462 53.5945 17.5649 53.4025 17.4739C53.4025 17.5256 53.4025 17.5773 53.4025 17.6306C53.2171 17.6796 53.2171 17.6796 53.0122 17.709C52.9606 17.6572 52.9091 17.6055 52.856 17.5522C52.7868 17.5765 52.7175 17.6007 52.6462 17.6257C52.0546 17.8161 52.0546 17.8161 51.841 17.709C51.2126 17.6484 50.5734 17.7565 49.9502 17.8314C49.7352 17.8564 49.5485 17.8665 49.3348 17.8629C48.9125 17.8583 48.5112 17.8819 48.0935 17.944C48.0935 17.8923 48.0935 17.8406 48.0935 17.7873C47.9776 17.8649 47.9776 17.8649 47.8593 17.944C47.6251 17.9146 47.6251 17.9146 47.3908 17.8657C47.1576 17.8657 46.9304 17.881 46.6979 17.9C46.6176 17.9063 46.5373 17.9127 46.4546 17.9192C46.2219 17.9395 46.2219 17.9395 46.0059 17.9906C45.7894 18.0296 45.6999 17.9812 45.5171 17.8657C45.5171 17.9174 45.5171 17.9691 45.5171 18.0224C45.4494 17.9965 45.3818 17.9707 45.3121 17.944C44.5267 17.7199 43.4533 17.8053 42.6631 17.9909C42.4428 18.0272 42.2928 17.9976 42.0769 17.944C41.8159 17.8794 41.634 17.8438 41.3792 17.944C41.3534 17.9957 41.3276 18.0475 41.3011 18.1007C41.2323 18.0998 41.1636 18.0989 41.0928 18.098C41.0021 18.0973 40.9114 18.0966 40.818 18.0958C40.7283 18.0949 40.6387 18.094 40.5463 18.0931C40.3179 18.0998 40.1172 18.1259 39.8957 18.1791C39.8957 18.2308 39.8957 18.2825 39.8957 18.3358C39.592 18.539 39.4656 18.4759 39.115 18.4142C38.8637 18.4142 38.6319 18.4306 38.3831 18.4583C38.0606 18.4896 37.7945 18.4738 37.4755 18.4142C37.264 18.4396 37.0667 18.4752 36.8623 18.5345C36.6659 18.5772 36.4883 18.5784 36.2873 18.5758C36.2085 18.5751 36.1298 18.5745 36.0486 18.5738C35.9656 18.5728 35.8825 18.5719 35.7969 18.5709C35.2327 18.5676 34.6761 18.5681 34.1143 18.6263C33.8005 18.6576 33.4864 18.6783 33.1716 18.6982C33.1132 18.7023 33.0548 18.7064 32.9946 18.7106C32.5749 18.7367 32.5749 18.7367 32.4007 18.6493C32.4007 18.701 32.4007 18.7527 32.4007 18.806C32.3459 18.8107 32.2912 18.8155 32.2347 18.8204C31.8906 18.8509 31.5475 18.8817 31.2051 18.9284C30.9493 18.9589 30.706 18.9691 30.4488 18.9627C30.423 19.0144 30.3973 19.0661 30.3707 19.1194C30.2983 19.1049 30.2258 19.0903 30.1512 19.0753C29.9012 19.0221 29.9012 19.0221 29.6681 19.1194C29.1921 19.1916 28.7227 19.2035 28.2423 19.1852C28.0174 19.1901 28.0174 19.1901 27.7675 19.2764C27.454 19.3621 27.1958 19.3648 26.872 19.3545C26.6851 19.3486 26.4978 19.3472 26.3109 19.3545C26.2594 19.4062 26.2078 19.4579 26.1547 19.5112C26.0024 19.5112 25.8499 19.5107 25.6976 19.5063C25.5097 19.5049 25.5097 19.5049 25.2569 19.5896C24.9384 19.6809 24.6885 19.6795 24.359 19.6679C24.359 19.6162 24.359 19.5645 24.359 19.5112C24.3059 19.5274 24.2528 19.5435 24.198 19.5602C23.9687 19.5896 23.9687 19.5896 23.7101 19.5063C23.3417 19.4123 23.1555 19.4761 22.7976 19.5896C22.7976 19.5378 22.7976 19.4861 22.7976 19.4328C22.7493 19.4668 22.701 19.5007 22.6512 19.5357C22.3234 19.7133 21.9835 19.8022 21.6265 19.903C21.5492 19.9288 21.4719 19.9547 21.3922 19.9813C21.3665 20.0589 21.3407 20.1365 21.3142 20.2164C21.2369 20.113 21.1596 20.0096 21.0799 19.903C20.9857 19.9369 20.9857 19.9369 20.8896 19.9715C20.3868 20.1309 19.8837 20.22 19.3623 20.2948C19.2418 20.3236 19.1215 20.3531 19.0012 20.3829C18.7278 20.4474 18.5442 20.44 18.2693 20.3731C18.2178 20.4249 18.1662 20.4766 18.1131 20.5299C18.0391 20.5153 17.965 20.5008 17.8887 20.4858C17.4567 20.4048 17.0423 20.5662 16.6297 20.6866C16.6297 20.6349 16.6297 20.5831 16.6297 20.5299C16.5759 20.5412 16.522 20.5525 16.4666 20.5641C15.9894 20.6587 15.5538 20.6943 15.0683 20.6866C15.0167 20.7124 14.9652 20.7383 14.9121 20.7649C14.9121 20.7132 14.9121 20.6615 14.9121 20.6082C14.7318 20.6341 14.5514 20.6599 14.3656 20.6866C14.3656 20.6349 14.3656 20.5831 14.3656 20.5299C14.182 20.5768 13.9997 20.6293 13.8191 20.6866C13.7933 20.7383 13.7675 20.79 13.741 20.8433C13.4154 21.0208 13.1619 21.0035 12.7992 20.9657C12.4845 20.9337 12.249 20.9229 11.9453 21C11.8035 20.942 11.6618 20.8839 11.5205 20.8246C11.1768 20.7219 10.8242 20.7235 10.4677 20.7107C10.2277 20.6866 10.2277 20.6866 9.99345 20.5299C9.94193 20.5557 9.8904 20.5816 9.83731 20.6082C9.49925 20.5848 9.22543 20.5429 8.91506 20.4074C8.58243 20.2699 8.28103 20.2819 7.92572 20.3018C7.64421 20.2917 7.4841 20.2006 7.28039 20.0107C7.24818 19.9752 7.21598 19.9396 7.1828 19.903C7.15703 19.9806 7.13127 20.0581 7.10472 20.1381C7.05319 20.1381 7.00166 20.1381 6.94857 20.1381C6.92281 20.0346 6.89705 19.9312 6.8705 19.8246C6.66439 19.7729 6.45827 19.7212 6.24591 19.6679C6.24591 19.6162 6.24591 19.5645 6.24591 19.5112C6.17667 19.5257 6.10743 19.5403 6.03609 19.5553C5.71729 19.5975 5.51166 19.5756 5.22607 19.4279C5.00306 19.2041 4.89006 18.9359 4.76251 18.6493C4.63368 18.6751 4.50486 18.701 4.37214 18.7276C4.33832 18.6525 4.33832 18.6525 4.30382 18.5758C4.2294 18.4023 4.2294 18.4023 4.05984 18.3358C4.05984 18.2582 4.05984 18.1807 4.05984 18.1007C3.98738 18.0886 3.98738 18.0886 3.91345 18.0763C3.74755 18.0224 3.74755 18.0224 3.5914 17.7873C3.5914 17.7097 3.5914 17.6322 3.5914 17.5522C3.53987 17.5522 3.48834 17.5522 3.43525 17.5522C3.43525 17.5005 3.43525 17.4488 3.43525 17.3955C3.35796 17.3697 3.28066 17.3438 3.20103 17.3172C3.08392 17.1751 3.08392 17.1751 2.96681 17.0037C2.92977 16.9569 2.89273 16.91 2.85458 16.8617C2.71975 16.6723 2.60931 16.4757 2.49714 16.2722C2.41805 16.1303 2.41805 16.1303 2.28366 15.9753C2.15856 15.787 2.16766 15.6582 2.18607 15.4366C2.10878 15.4366 2.03148 15.4366 1.95185 15.4366C1.88942 15.179 1.86623 15.0675 1.95185 14.8097C1.87455 14.7838 1.79726 14.758 1.71763 14.7313C1.61759 14.5777 1.61759 14.5777 1.52244 14.3885C1.4007 14.1481 1.28472 13.9785 1.09303 13.791C1.06558 13.6869 1.03934 13.5825 1.01496 13.4776C0.963432 13.4518 0.911903 13.4259 0.858813 13.3993C0.810016 13.1985 0.810016 13.1985 0.780739 13.0075C0.72921 13.0075 0.677681 13.0075 0.624591 13.0075C0.508025 12.6025 0.396903 12.1962 0.287592 11.7892C0.247723 11.6456 0.203116 11.5034 0.156148 11.3619C0.150885 11.2396 0.1495 11.1171 0.151268 10.9946C0.151973 10.9313 0.152677 10.868 0.153403 10.8027C0.154309 10.7545 0.155215 10.7064 0.156148 10.6567C0.104619 10.6567 0.0530902 10.6567 0 10.6567C0 10.5016 0 10.3464 0 10.1866C0.0515288 10.1866 0.103058 10.1866 0.156148 10.1866C0.156148 10.109 0.156148 10.0314 0.156148 9.95149C0.233441 9.9127 0.233441 9.91271 0.312295 9.87313C0.387734 9.74163 0.387734 9.74163 0.390369 9.5597C0.32932 9.42695 0.268214 9.29422 0.206469 9.16179C0.0634624 8.73382 0.26881 8.24758 0.390369 7.83582C0.418687 7.67951 0.445521 7.52288 0.468443 7.36567C0.519972 7.36567 0.571501 7.36567 0.624591 7.36567C0.632642 7.30749 0.640694 7.24931 0.648989 7.18937C0.70759 6.95411 0.788919 6.84894 0.936886 6.66045C1.1733 6.28628 1.20768 5.95576 1.23271 5.52334C1.24918 5.32836 1.24918 5.32836 1.32726 5.09328C1.37878 5.09328 1.43031 5.09328 1.4834 5.09328C1.63049 4.83741 1.67803 4.60111 1.71763 4.3097C1.9495 4.27091 1.9495 4.27091 2.18607 4.23134C2.18607 4.15377 2.18607 4.07619 2.18607 3.99627C2.2376 3.99627 2.28913 3.99627 2.34222 3.99627C2.34222 3.94455 2.34222 3.89284 2.34222 3.83955C2.48372 3.67304 2.48372 3.67304 2.65451 3.52612C2.7318 3.52612 2.8091 3.52612 2.88873 3.52612C2.88873 3.42269 2.88873 3.31925 2.88873 3.21269C2.94026 3.21269 2.99179 3.21269 3.04488 3.21269C3.09319 3.07208 3.09319 3.07208 3.14247 2.92864C3.34338 2.51132 3.68283 2.39294 4.09247 2.21944C4.31874 2.13278 4.31874 2.13278 4.37214 1.8806C4.52828 1.8806 4.68443 1.8806 4.84058 1.8806C5.01732 1.81805 5.19345 1.75401 5.36941 1.68929C5.54324 1.64552 5.54324 1.64552 5.77747 1.72388C5.77747 1.67216 5.77747 1.62045 5.77747 1.56716C5.85476 1.54131 5.93205 1.51545 6.01169 1.48881C6.03745 1.43709 6.06322 1.38537 6.08976 1.33209C6.28525 1.2825 6.28525 1.2825 6.52405 1.24394C6.60305 1.23081 6.68206 1.21767 6.76345 1.20415C6.82454 1.19465 6.88563 1.18516 6.94857 1.17537C6.97434 1.0978 7.0001 1.02022 7.02665 0.940299C7.10394 1.01787 7.10394 1.01787 7.1828 1.09701C7.26009 1.09701 7.33738 1.09701 7.41702 1.09701C7.44278 1.0453 7.46855 0.993582 7.49509 0.940299C7.62426 0.909794 7.75472 0.88476 7.88546 0.86194C7.97242 0.836082 8.05937 0.810224 8.14896 0.783582C8.85917 0.586947 8.85917 0.586947 9.21272 0.705224C9.21272 0.627649 9.21272 0.550075 9.21272 0.470149C9.36233 0.465899 9.51199 0.46287 9.66164 0.460354C9.74497 0.458536 9.8283 0.456718 9.91416 0.454845C10.1496 0.470149 10.1496 0.470149 10.3207 0.55616C10.3673 0.579493 10.4139 0.602826 10.4619 0.626866C10.5924 0.567793 10.7228 0.50825 10.851 0.444438C11.137 0.348769 11.4206 0.415271 11.7111 0.470149C11.7368 0.392575 11.7626 0.315 11.7892 0.235075C12.2143 0.312649 12.2143 0.312649 12.648 0.391791C12.648 0.340075 12.648 0.288358 12.648 0.235075C12.7072 0.231236 12.7665 0.227398 12.8276 0.223443C12.9052 0.217585 12.9828 0.211726 13.0627 0.20569C13.1397 0.200236 13.2167 0.194781 13.296 0.189162C13.5236 0.169359 13.5236 0.169359 13.741 0ZM94.1717 0.626866C93.9723 0.718352 93.8273 0.717311 93.6106 0.705224C93.6363 0.808657 93.6621 0.91209 93.6886 1.01866C93.7659 0.992799 93.8432 0.96694 93.9229 0.940299C94.0792 0.9654 94.2353 0.991434 94.3913 1.01866C94.4925 0.935092 94.4925 0.935092 94.4743 0.739506C94.4726 0.676476 94.471 0.613447 94.4694 0.548507C94.3091 0.53589 94.3091 0.53589 94.1717 0.626866ZM96.2651 0.548507C96.2651 0.600224 96.2651 0.65194 96.2651 0.705224C96.3424 0.679366 96.4197 0.653507 96.4993 0.626866C96.422 0.601007 96.3447 0.575149 96.2651 0.548507ZM97.6704 0.626866C97.6446 0.678582 97.6189 0.730299 97.5923 0.783582C97.6439 0.783582 97.6954 0.783582 97.7485 0.783582C97.7227 0.731866 97.697 0.680149 97.6704 0.626866ZM85.8813 0.705224C85.8813 0.75694 85.8813 0.808657 85.8813 0.86194C86.0101 0.836082 86.1389 0.810224 86.2716 0.783582C86.2716 0.757724 86.2716 0.731866 86.2716 0.705224C86.1428 0.705224 86.014 0.705224 85.8813 0.705224ZM94.6255 0.705224C94.6255 0.75694 94.6255 0.808657 94.6255 0.86194C94.7286 0.836082 94.8316 0.810224 94.9378 0.783582C94.8348 0.757724 94.7317 0.731866 94.6255 0.705224ZM95.0159 0.705224C95.0932 0.731082 95.1705 0.75694 95.2501 0.783582C95.2501 0.835299 95.2501 0.887015 95.2501 0.940299C95.377 0.942413 95.5039 0.943933 95.6307 0.945196C95.7014 0.946105 95.772 0.947014 95.8448 0.947951C96.0322 0.953031 96.0322 0.953031 96.187 0.86194C96.187 0.810224 96.187 0.758508 96.187 0.705224C96.0324 0.75694 95.8778 0.808657 95.7186 0.86194C95.7186 0.810224 95.7186 0.758508 95.7186 0.705224C95.4867 0.705224 95.2548 0.705224 95.0159 0.705224ZM75.7317 0.783582C75.8097 0.940299 75.8097 0.940299 75.8097 0.940299L75.7317 0.783582ZM86.2716 0.783582C86.3876 0.861157 86.3876 0.861157 86.5058 0.940299C86.5058 0.888582 86.5058 0.836866 86.5058 0.783582C86.4286 0.783582 86.3513 0.783582 86.2716 0.783582ZM98.6854 0.783582C98.6854 0.835299 98.6854 0.887015 98.6854 0.940299C98.8786 0.979086 98.8786 0.979086 99.0757 1.01866C99.0757 0.941082 99.0757 0.863507 99.0757 0.783582C98.9469 0.783582 98.8181 0.783582 98.6854 0.783582ZM99.7003 0.783582C99.7261 0.835299 99.7519 0.887015 99.7784 0.940299C99.8042 0.888582 99.8299 0.836866 99.8565 0.783582C99.8049 0.783582 99.7534 0.783582 99.7003 0.783582ZM100.013 0.783582C100.129 0.861157 100.129 0.861157 100.247 0.940299C100.247 0.888582 100.247 0.836866 100.247 0.783582C100.17 0.783582 100.092 0.783582 100.013 0.783582ZM110.865 1.41045C110.865 1.46216 110.865 1.51388 110.865 1.56716C110.968 1.56716 111.071 1.56716 111.177 1.56716C111.151 1.51545 111.126 1.46373 111.099 1.41045C111.022 1.41045 110.945 1.41045 110.865 1.41045ZM115.315 1.48881C115.289 1.54052 115.264 1.59224 115.237 1.64552C115.314 1.61966 115.392 1.59381 115.471 1.56716C115.42 1.54131 115.368 1.51545 115.315 1.48881ZM122.108 3.68284C122.133 3.78627 122.159 3.8897 122.186 3.99627C122.469 3.99627 122.752 3.99627 123.044 3.99627C123.044 3.94455 123.044 3.89284 123.044 3.83955C122.581 3.76198 122.581 3.76198 122.108 3.68284ZM121.483 3.76119C121.483 3.83877 121.483 3.91634 121.483 3.99627C121.56 3.91869 121.638 3.84112 121.717 3.76119C121.64 3.76119 121.563 3.76119 121.483 3.76119ZM123.591 3.83955C123.837 4.13435 123.996 4.18771 124.372 4.23134C124.547 4.23831 124.723 4.24154 124.899 4.24114C125.031 4.24144 125.031 4.24144 125.166 4.24175C125.383 4.24651 125.383 4.24651 125.543 4.15299C125.594 3.99434 125.594 3.99434 125.621 3.83955C125.466 3.89127 125.312 3.94299 125.152 3.99627C125.127 3.91869 125.101 3.84112 125.074 3.76119C124.886 3.74377 124.697 3.72763 124.508 3.71222C124.455 3.70717 124.402 3.70212 124.347 3.69692C124.05 3.67375 123.842 3.66908 123.591 3.83955ZM123.435 3.83955C123.435 3.89127 123.435 3.94299 123.435 3.99627C123.486 3.99627 123.538 3.99627 123.591 3.99627C123.591 3.94455 123.591 3.89284 123.591 3.83955C123.539 3.83955 123.488 3.83955 123.435 3.83955ZM135.536 5.48507C135.614 5.64179 135.614 5.64179 135.614 5.64179L135.536 5.48507ZM128.9 5.56343C128.9 5.61515 128.9 5.66687 128.9 5.72015C128.9 5.74601 128.9 5.77187 128.9 5.79851C128.848 5.79851 128.797 5.79851 128.744 5.79851C128.744 5.85022 128.744 5.90194 128.744 5.95522C128.959 6.02291 128.959 6.02291 129.212 6.03358C129.439 5.90215 129.439 5.90215 129.603 5.72015C129.603 5.66843 129.603 5.61672 129.603 5.56343C129.371 5.56343 129.139 5.56343 128.9 5.56343ZM131.945 5.95522C131.893 6.05866 131.842 6.16209 131.789 6.26866C131.892 6.19108 131.995 6.11351 132.101 6.03358C132.049 6.00772 131.998 5.98187 131.945 5.95522ZM136.551 5.95522C136.629 6.11194 136.629 6.11194 136.629 6.11194L136.551 5.95522ZM132.726 6.1903C132.674 6.24201 132.623 6.29373 132.569 6.34701C132.647 6.34701 132.724 6.34701 132.804 6.34701C132.778 6.2953 132.752 6.24358 132.726 6.1903ZM133.116 6.26866C133.116 6.34623 133.116 6.42381 133.116 6.50373C133.167 6.50373 133.219 6.50373 133.272 6.50373C133.272 6.42616 133.272 6.34858 133.272 6.26866C133.221 6.26866 133.169 6.26866 133.116 6.26866ZM136.083 6.26866C136.109 6.32037 136.134 6.37209 136.161 6.42537C136.212 6.42537 136.264 6.42537 136.317 6.42537C136.317 6.37366 136.317 6.32194 136.317 6.26866C136.24 6.26866 136.162 6.26866 136.083 6.26866ZM125.23 6.58209C125.205 6.71138 125.179 6.84067 125.152 6.97388C125.281 6.97388 125.41 6.97388 125.543 6.97388C125.569 6.87045 125.594 6.76702 125.621 6.66045C125.492 6.63459 125.363 6.60873 125.23 6.58209ZM126.011 6.58209C125.985 6.63381 125.96 6.68552 125.933 6.73881C126.088 6.73881 126.242 6.73881 126.402 6.73881C126.304 6.93555 126.206 6.96379 126.011 7.05224C126.127 7.12981 126.127 7.12981 126.245 7.20896C126.413 7.07351 126.413 7.07351 126.558 6.89552C126.547 6.72168 126.547 6.72168 126.48 6.58209C126.325 6.58209 126.17 6.58209 126.011 6.58209ZM126.948 6.58209C126.897 6.73724 126.845 6.89239 126.792 7.05224C126.843 7.10396 126.895 7.15567 126.948 7.20896C127 7.10552 127.051 7.00209 127.104 6.89552C127.207 6.89552 127.31 6.89552 127.417 6.89552C127.417 6.84381 127.417 6.79209 127.417 6.73881C127.262 6.68709 127.107 6.63537 126.948 6.58209ZM131.32 6.58209C131.398 6.73881 131.398 6.73881 131.398 6.73881L131.32 6.58209ZM127.729 6.66045C127.635 6.84319 127.56 7.01278 127.495 7.20896C127.443 7.26067 127.392 7.31239 127.338 7.36567C127.416 7.39153 127.493 7.41739 127.573 7.44403C127.624 7.36646 127.676 7.28888 127.729 7.20896C127.961 7.11859 128.031 7.12709 128.275 7.20896C128.275 7.05381 128.275 6.89866 128.275 6.73881C128.095 6.71295 127.915 6.68709 127.729 6.66045ZM129.29 6.66045C129.368 6.77681 129.368 6.77681 129.446 6.89552C129.55 6.84381 129.653 6.79209 129.759 6.73881C129.527 6.70002 129.527 6.70002 129.29 6.66045ZM132.018 6.81716C131.968 6.86888 131.918 6.9206 131.867 6.97388C132.215 6.93509 132.215 6.93509 132.569 6.89552C132.292 6.63153 132.292 6.63153 132.018 6.81716ZM125.699 6.89552C125.673 6.94724 125.647 6.99896 125.621 7.05224C125.672 7.05224 125.724 7.05224 125.777 7.05224C125.751 7.00052 125.725 6.94881 125.699 6.89552ZM131.554 6.89552C131.58 6.94724 131.606 6.99896 131.633 7.05224C131.658 7.00052 131.684 6.94881 131.711 6.89552C131.659 6.89552 131.608 6.89552 131.554 6.89552ZM125.777 7.05224C125.855 7.36567 125.855 7.36567 125.855 7.36567L125.777 7.05224ZM132.335 7.1306C132.413 7.28731 132.413 7.28731 132.413 7.28731L132.335 7.1306ZM132.569 7.6791C132.518 7.73082 132.466 7.78254 132.413 7.83582C132.516 7.83582 132.619 7.83582 132.726 7.83582C132.726 7.7841 132.726 7.73239 132.726 7.6791C132.674 7.6791 132.623 7.6791 132.569 7.6791ZM144.905 9.32463C144.983 9.48134 144.983 9.48134 144.983 9.48134L144.905 9.32463ZM143.734 9.5597C143.786 9.61142 143.837 9.66313 143.89 9.71642C143.89 9.6647 143.89 9.61299 143.89 9.5597C143.839 9.5597 143.787 9.5597 143.734 9.5597ZM144.437 9.87313C144.488 9.87313 144.54 9.87313 144.593 9.87313C144.619 9.95071 144.644 10.0283 144.671 10.1082C144.748 10.0306 144.825 9.95306 144.905 9.87313C144.879 9.79556 144.854 9.71798 144.827 9.63806C144.673 9.63806 144.553 9.78246 144.437 9.87313ZM143.578 10.3433C143.578 10.4209 143.578 10.4984 143.578 10.5784C143.655 10.5525 143.732 10.5266 143.812 10.5C143.761 10.5 143.709 10.5 143.656 10.5C143.63 10.4483 143.604 10.3966 143.578 10.3433ZM143.89 10.3433C143.864 10.5786 143.864 10.5786 144.007 10.7106C144.046 10.7445 144.085 10.7785 144.124 10.8134C144.099 10.6583 144.073 10.5031 144.046 10.3433C143.995 10.3433 143.943 10.3433 143.89 10.3433ZM152.478 10.4216C152.556 10.5784 152.556 10.5784 152.556 10.5784L152.478 10.4216ZM151.932 10.5C151.88 10.5517 151.829 10.6034 151.776 10.6567C151.853 10.6567 151.93 10.6567 152.01 10.6567C151.984 10.605 151.958 10.5533 151.932 10.5ZM150.683 10.6567C150.657 10.7084 150.631 10.7601 150.604 10.8134C150.682 10.9298 150.682 10.9298 150.761 11.0485C150.77 10.9984 150.78 10.9483 150.79 10.8967C150.806 10.8434 150.822 10.79 150.839 10.7351C150.89 10.7092 150.942 10.6834 150.995 10.6567C150.892 10.6567 150.789 10.6567 150.683 10.6567ZM142.251 10.8134C142.225 10.8651 142.199 10.9169 142.173 10.9701C142.301 10.9443 142.43 10.9184 142.563 10.8918C142.46 10.8659 142.357 10.8401 142.251 10.8134ZM151.229 10.8918C151.307 11.0485 151.307 11.0485 151.307 11.0485L151.229 10.8918ZM143.734 10.9701C143.734 11.0219 143.734 11.0736 143.734 11.1269C143.786 11.101 143.837 11.0751 143.89 11.0485C143.839 11.0226 143.787 10.9968 143.734 10.9701ZM148.106 11.0485C148.08 11.1519 148.055 11.2554 148.028 11.3619C148.08 11.3619 148.131 11.3619 148.184 11.3619C148.158 11.2585 148.133 11.1551 148.106 11.0485ZM144.593 11.1269C144.567 11.1786 144.541 11.2303 144.515 11.2836C144.566 11.2836 144.618 11.2836 144.671 11.2836C144.645 11.2319 144.619 11.1801 144.593 11.1269ZM146.701 11.1269C146.623 11.2432 146.624 11.2432 146.545 11.3619C146.622 11.3361 146.699 11.3102 146.779 11.2836C146.753 11.2319 146.727 11.1801 146.701 11.1269ZM152.01 11.2052C151.958 11.3345 151.907 11.4638 151.854 11.597C151.931 11.6358 151.931 11.6358 152.01 11.6754C152.01 11.5978 152.01 11.5202 152.01 11.4403C152.113 11.4662 152.216 11.492 152.322 11.5187C152.322 11.4669 152.322 11.4152 152.322 11.3619C152.399 11.3361 152.477 11.3102 152.556 11.2836C152.376 11.2577 152.196 11.2319 152.01 11.2052ZM146.31 11.2052C146.259 11.2569 146.207 11.3087 146.154 11.3619C146.232 11.3619 146.309 11.3619 146.389 11.3619C146.363 11.3102 146.337 11.2585 146.31 11.2052ZM149.355 11.3619C149.355 11.4137 149.355 11.4654 149.355 11.5187C149.433 11.4928 149.51 11.4669 149.59 11.4403C149.512 11.4144 149.435 11.3886 149.355 11.3619ZM149.59 11.597C149.913 11.6134 149.913 11.6134 150.214 11.5187C150.214 11.4669 150.214 11.4152 150.214 11.3619C149.881 11.3619 149.829 11.3914 149.59 11.597ZM150.761 11.4403C150.839 11.597 150.839 11.597 150.839 11.597L150.761 11.4403ZM151.073 11.4403C151.151 11.597 151.151 11.597 151.151 11.597L151.073 11.4403ZM147.794 11.8321C147.768 11.9097 147.742 11.9872 147.716 12.0672C147.87 12.1189 148.025 12.1706 148.184 12.2239C148.184 12.1722 148.184 12.1204 148.184 12.0672C148.416 12.093 148.648 12.1189 148.887 12.1455C148.861 12.0679 148.835 11.9904 148.809 11.9104C148.633 11.8373 148.53 11.8233 148.345 11.8713C148.142 11.9208 147.995 11.8825 147.794 11.8321ZM146.389 11.9104C146.467 12.0672 146.467 12.0672 146.467 12.0672L146.389 11.9104ZM146.701 12.0672C146.779 12.2239 146.779 12.2239 146.779 12.2239L146.701 12.0672ZM152.088 12.1455C152.062 12.2231 152.036 12.3007 152.01 12.3806C152.087 12.3806 152.164 12.3806 152.244 12.3806C152.218 12.303 152.193 12.2254 152.166 12.1455C152.14 12.1455 152.114 12.1455 152.088 12.1455ZM147.638 14.2612C147.715 14.3776 147.715 14.3776 147.794 14.4963C147.845 14.4963 147.897 14.4963 147.95 14.4963C147.95 14.4446 147.95 14.3928 147.95 14.3396C147.847 14.3137 147.744 14.2878 147.638 14.2612ZM157.475 14.5746C157.604 14.5746 157.733 14.5746 157.865 14.5746C157.865 14.5229 157.865 14.4712 157.865 14.4179C157.684 14.4034 157.684 14.4034 157.475 14.5746ZM153.493 14.8097C153.467 14.9131 153.442 15.0166 153.415 15.1231C153.545 15.2212 153.545 15.2212 153.727 15.2799C153.971 15.2159 153.971 15.2159 154.196 15.1231C154.247 15.1231 154.299 15.1231 154.352 15.1231C154.352 15.0714 154.352 15.0197 154.352 14.9664C154.049 14.8729 153.812 14.8097 153.493 14.8097Z" fill="#0FAC8E"/>
<path d="M155.914 11.832C156.109 11.8974 156.278 11.9726 156.46 12.0671C156.537 12.0154 156.615 11.9637 156.694 11.9104C156.746 11.9362 156.797 11.9621 156.85 11.9887C156.825 12.118 156.799 12.2473 156.772 12.3805C156.683 12.3927 156.683 12.3927 156.592 12.405C156.365 12.4633 156.301 12.5254 156.148 12.694C155.862 12.694 155.575 12.694 155.289 12.694C155.201 12.4001 155.201 12.4001 155.289 12.2238C155.341 12.2238 155.392 12.2238 155.445 12.2238C155.497 12.1462 155.548 12.0687 155.601 11.9887C155.679 11.9887 155.756 11.9887 155.836 11.9887C155.861 11.937 155.887 11.8853 155.914 11.832Z" fill="#0FAC8E"/>
<path d="M149.199 9.48128C149.334 9.47915 149.469 9.47764 149.604 9.47639C149.679 9.47548 149.755 9.47457 149.832 9.47363C150.047 9.4809 150.24 9.51097 150.448 9.55964C150.448 9.68893 150.448 9.81823 150.448 9.95143C150.278 9.95143 150.106 9.94926 149.936 9.93674C149.702 9.95482 149.668 10.0222 149.512 10.1865C149.408 10.1865 149.305 10.1865 149.199 10.1865C149.199 9.95378 149.199 9.72106 149.199 9.48128Z" fill="#0FAC8E"/>
<path d="M140.533 5.09353C140.862 5.07816 141.093 5.10902 141.392 5.25025C141.392 5.19853 141.392 5.14681 141.392 5.09353C141.831 5.07394 141.831 5.07394 142.094 5.25025C142.094 5.32782 142.094 5.4054 142.094 5.48532C141.553 5.48532 141.012 5.48532 140.455 5.48532C140.429 5.43361 140.403 5.38189 140.377 5.32861C140.428 5.32861 140.48 5.32861 140.533 5.32861C140.533 5.25103 140.533 5.17346 140.533 5.09353Z" fill="#0FAC8E"/>
<path d="M157.241 11.4404C157.37 11.4663 157.498 11.4921 157.631 11.5188C157.631 11.7539 157.631 11.7539 157.548 11.9106C157.448 12.0773 157.448 12.0773 157.553 12.3024C157.424 12.3541 157.295 12.4058 157.163 12.4591C157.007 12.3024 157.007 12.3024 156.982 12.082C157.009 11.807 157.084 11.6639 157.241 11.4404Z" fill="#0FAC8E"/>
<path d="M121.561 2.03711C121.692 2.05952 121.822 2.08552 121.951 2.11547C121.926 2.2189 121.9 2.32233 121.873 2.4289C121.745 2.44587 121.745 2.44587 121.615 2.46318C121.332 2.49808 121.332 2.49808 121.093 2.58562C120.976 2.48277 120.976 2.48277 120.858 2.35054C120.858 2.27297 120.858 2.19539 120.858 2.11547C120.96 2.11708 121.061 2.1187 121.166 2.12036C121.272 2.12205 121.377 2.12107 121.483 2.11547C121.509 2.08961 121.535 2.06375 121.561 2.03711Z" fill="#0FAC8E"/>
<path d="M137.878 7.44434C138.059 7.44434 138.239 7.44434 138.425 7.44434C138.425 7.70366 138.394 7.84482 138.269 8.0712C138.064 8.13487 138.064 8.13487 137.878 8.14956C137.792 7.88899 137.813 7.70904 137.878 7.44434Z" fill="#0FAC8E"/>
<path d="M139.44 7.20898C139.491 7.23484 139.543 7.2607 139.596 7.28734C139.596 7.33906 139.596 7.39078 139.596 7.44406C139.828 7.48285 139.828 7.48285 140.065 7.52242C140.065 7.57413 140.065 7.62585 140.065 7.67913C139.704 7.74499 139.405 7.79807 139.05 7.67913C139.157 7.43143 139.205 7.36627 139.44 7.20898Z" fill="#0FAC8E"/>
<path d="M139.128 7.75781C139.128 7.83539 139.128 7.91296 139.128 7.99289C139.205 8.0446 139.282 8.09632 139.362 8.1496C139.107 8.23479 138.926 8.25074 138.659 8.22796C138.608 8.15039 138.556 8.07281 138.503 7.99289C138.742 7.78729 138.794 7.75781 139.128 7.75781Z" fill="#0FAC8E"/>
<path d="M151.078 5.86914C151.174 5.8705 151.174 5.8705 151.273 5.8719C151.337 5.8726 151.402 5.87331 151.468 5.87404C151.518 5.87495 151.568 5.87586 151.619 5.87679C151.473 6.18043 151.473 6.18043 151.385 6.26858C151.229 6.27178 151.073 6.27192 150.917 6.26858C150.873 6.11676 150.873 6.11676 150.839 5.95515C150.917 5.87679 150.917 5.87679 151.078 5.86914Z" fill="#0FAC8E"/>
<path d="M134.677 3.91773C135.15 3.90242 135.15 3.90242 135.302 3.91773C135.354 3.96944 135.405 4.02116 135.458 4.07444C135.407 4.12616 135.355 4.17788 135.302 4.23116C135.133 4.22932 135.133 4.22932 134.941 4.20178C134.877 4.19309 134.813 4.1844 134.748 4.17545C134.699 4.16798 134.65 4.1605 134.599 4.1528C134.625 4.07523 134.651 3.99765 134.677 3.91773Z" fill="#0FAC8E"/>
<path d="M144.905 6.26855C145.163 6.26855 145.42 6.26855 145.686 6.26855C145.66 6.34613 145.634 6.4237 145.608 6.50363C145.26 6.54242 145.26 6.54242 144.905 6.58199C144.905 6.47855 144.905 6.37512 144.905 6.26855Z" fill="#0FAC8E"/>
<path d="M118.438 1.33203C118.799 1.33203 119.159 1.33203 119.531 1.33203C119.531 1.38375 119.531 1.43546 119.531 1.48875C118.796 1.60762 118.796 1.60762 118.438 1.41039C118.438 1.38453 118.438 1.35867 118.438 1.33203Z" fill="#0FAC8E"/>
<path d="M144.671 6.8959C144.671 6.97347 144.671 7.05105 144.671 7.13097C144.49 7.17995 144.49 7.17995 144.281 7.20933C144.203 7.15761 144.126 7.1059 144.046 7.05261C144.046 7.0009 144.046 6.94918 144.046 6.8959C144.303 6.80997 144.414 6.83325 144.671 6.8959Z" fill="#0FAC8E"/>
<path d="M143.5 5.32812C143.68 5.35398 143.86 5.37984 144.046 5.40648C144.046 5.48406 144.046 5.56163 144.046 5.64156C143.892 5.64156 143.737 5.64156 143.578 5.64156C143.552 5.53812 143.526 5.43469 143.5 5.32812Z" fill="#0FAC8E"/>
<path d="M138.347 5.01465C138.527 5.06636 138.708 5.11808 138.893 5.17136C138.893 5.24894 138.893 5.32651 138.893 5.40644C138.816 5.40644 138.739 5.40644 138.659 5.40644C138.659 5.35472 138.659 5.30301 138.659 5.24972C138.53 5.24972 138.402 5.24972 138.269 5.24972C138.295 5.17215 138.32 5.09457 138.347 5.01465Z" fill="#0FAC8E"/>
<path d="M157.163 12.9296C157.137 12.9813 157.111 13.033 157.085 13.0863C156.903 13.1182 156.721 13.1446 156.538 13.1647C156.512 13.0871 156.487 13.0095 156.46 12.9296C156.7 12.8094 156.905 12.8865 157.163 12.9296Z" fill="#0FAC8E"/>
<path d="M157.943 11.3623C157.995 11.3623 158.046 11.3623 158.1 11.3623C158.125 11.4399 158.151 11.5175 158.178 11.5974C158.334 11.6921 158.334 11.6921 158.49 11.7541C158.335 11.8058 158.181 11.8575 158.021 11.9108C157.943 11.8325 157.943 11.8325 157.938 11.5925C157.94 11.5165 157.942 11.4406 157.943 11.3623Z" fill="#0FAC8E"/>
<path d="M146.388 6.26855C146.543 6.26855 146.698 6.26855 146.857 6.26855C146.883 6.34613 146.908 6.4237 146.935 6.50363C146.806 6.52949 146.677 6.55535 146.545 6.58199C146.493 6.47855 146.442 6.37512 146.388 6.26855Z" fill="#0FAC8E"/>
<path d="M143.656 6.73926C143.817 6.77354 143.817 6.77354 143.968 6.81762C143.942 6.89519 143.917 6.97277 143.89 7.05269C143.729 7.10656 143.729 7.10656 143.578 7.13105C143.578 6.81762 143.578 6.81762 143.656 6.73926Z" fill="#0FAC8E"/>
<path d="M160.13 12.1455C160.13 12.2231 160.13 12.3007 160.13 12.3806C159.975 12.4064 159.82 12.4323 159.661 12.4589C159.661 12.3814 159.661 12.3038 159.661 12.2239C159.895 12.1455 159.895 12.1455 160.13 12.1455Z" fill="#0FAC8E"/>
<path d="M148.184 9.6377C148.236 9.66355 148.287 9.68941 148.34 9.71605C148.289 9.81949 148.237 9.92292 148.184 10.0295C148.055 10.0036 147.927 9.97777 147.794 9.95113C147.82 9.87355 147.845 9.79598 147.872 9.71605C148.027 9.75484 148.027 9.75484 148.184 9.79441C148.184 9.7427 148.184 9.69098 148.184 9.6377Z" fill="#0FAC8E"/>
<path d="M155.133 15.2012C155.21 15.227 155.287 15.2529 155.367 15.2795C155.316 15.4605 155.264 15.6415 155.211 15.828C155.185 15.828 155.159 15.828 155.133 15.828C155.133 15.6212 155.133 15.4143 155.133 15.2012Z" fill="#0FAC8E"/>
<path d="M160.208 12.0674C160.336 12.0674 160.465 12.0674 160.598 12.0674C160.598 12.145 160.598 12.2225 160.598 12.3025C160.469 12.3283 160.34 12.3542 160.208 12.3808C160.208 12.2774 160.208 12.1739 160.208 12.0674Z" fill="#0FAC8E"/>
<path d="M133.038 7.20898C133.27 7.24777 133.27 7.24777 133.506 7.28734C133.506 7.33906 133.506 7.39078 133.506 7.44406C133.429 7.46992 133.352 7.49578 133.272 7.52242C133.195 7.4707 133.117 7.41898 133.038 7.3657C133.038 7.31398 133.038 7.26227 133.038 7.20898Z" fill="#0FAC8E"/>
<path d="M141.47 6.73926C141.599 6.73926 141.727 6.73926 141.86 6.73926C141.834 6.84269 141.809 6.94612 141.782 7.05269C141.679 7.00097 141.576 6.94926 141.47 6.89597C141.47 6.84426 141.47 6.79254 141.47 6.73926Z" fill="#0FAC8E"/>
<path d="M157.787 13.5557C157.981 13.5945 157.981 13.5945 158.178 13.634C158.178 13.6857 158.178 13.7375 158.178 13.7907C158.049 13.7907 157.92 13.7907 157.787 13.7907C157.787 13.7132 157.787 13.6356 157.787 13.5557Z" fill="#0FAC8E"/>
<path d="M119.687 1.25391C119.919 1.29269 119.919 1.29269 120.156 1.33226C120.13 1.38398 120.104 1.4357 120.078 1.48898C119.949 1.46312 119.82 1.43726 119.687 1.41062C119.687 1.35891 119.687 1.30719 119.687 1.25391Z" fill="#0FAC8E"/>
<path d="M155.679 12.9287C155.757 12.9546 155.834 12.9804 155.914 13.0071C155.888 13.0588 155.862 13.1105 155.835 13.1638C155.732 13.1638 155.629 13.1638 155.523 13.1638C155.523 13.1121 155.523 13.0604 155.523 13.0071C155.575 12.9812 155.626 12.9554 155.679 12.9287Z" fill="#0FAC8E"/>
<path d="M158.178 12.1455C158.255 12.1714 158.332 12.1972 158.412 12.2239C158.386 12.3014 158.36 12.379 158.334 12.4589C158.282 12.4589 158.231 12.4589 158.178 12.4589C158.152 12.3814 158.126 12.3038 158.1 12.2239C158.125 12.198 158.151 12.1721 158.178 12.1455Z" fill="#0FAC8E"/>
<path d="M145.686 10.0303C145.686 10.082 145.686 10.1337 145.686 10.187C145.557 10.2128 145.428 10.2387 145.295 10.2653C145.295 10.2136 145.295 10.1619 145.295 10.1086C145.452 10.0303 145.452 10.0303 145.686 10.0303Z" fill="#0FAC8E"/>
<path d="M140.923 8.07129C141.001 8.07129 141.078 8.07129 141.158 8.07129C141.183 8.14886 141.209 8.22644 141.236 8.30636C141.158 8.34515 141.158 8.34515 141.079 8.38472C141.028 8.35886 140.976 8.33301 140.923 8.30636C140.923 8.22879 140.923 8.15121 140.923 8.07129Z" fill="#0FAC8E"/>
<path d="M133.038 3.44824C133.192 3.52582 133.192 3.52582 133.35 3.60496C133.324 3.65668 133.299 3.70839 133.272 3.76168C133.195 3.73582 133.117 3.70996 133.038 3.68332C133.038 3.60574 133.038 3.52817 133.038 3.44824Z" fill="#0FAC8E"/>
<path d="M101.262 15.9062C101.365 15.9062 101.468 15.9062 101.574 15.9062C101.574 15.9838 101.574 16.0614 101.574 16.1413C101.497 16.1413 101.419 16.1413 101.34 16.1413C101.314 16.0638 101.288 15.9862 101.262 15.9062Z" fill="#0FAC8E"/>
<path d="M145.998 10.1084C146.127 10.1084 146.256 10.1084 146.388 10.1084C146.281 10.2259 146.281 10.2259 146.154 10.3435C146.103 10.3435 146.051 10.3435 145.998 10.3435C145.998 10.2659 145.998 10.1883 145.998 10.1084Z" fill="#0FAC8E"/>
<path d="M155.679 10.0303C155.782 10.0561 155.885 10.082 155.991 10.1086C155.991 10.1603 155.991 10.2121 155.991 10.2653C155.888 10.2653 155.785 10.2653 155.679 10.2653C155.679 10.1878 155.679 10.1102 155.679 10.0303Z" fill="#0FAC8E"/>
<path d="M150.526 9.6377C150.629 9.6377 150.732 9.6377 150.839 9.6377C150.813 9.71527 150.787 9.79284 150.761 9.87277C150.683 9.84691 150.606 9.82105 150.526 9.79441C150.526 9.7427 150.526 9.69098 150.526 9.6377Z" fill="#0FAC8E"/>
<path d="M166.844 14.6533C166.895 14.6533 166.947 14.6533 167 14.6533C167 14.7309 167 14.8085 167 14.8884C166.897 14.8625 166.794 14.8367 166.688 14.81C166.739 14.7583 166.791 14.7066 166.844 14.6533Z" fill="#0FAC8E"/>
<path d="M148.965 9.7168C149.017 9.74266 149.068 9.76851 149.121 9.79516C149.095 9.87273 149.07 9.9503 149.043 10.0302C148.992 10.0302 148.94 10.0302 148.887 10.0302C148.913 9.9268 148.938 9.82336 148.965 9.7168Z" fill="#0FAC8E"/>
<path d="M135.614 7.75781C135.691 7.78367 135.769 7.80953 135.848 7.83617C135.848 7.88789 135.848 7.9396 135.848 7.99289C135.745 7.96703 135.642 7.94117 135.536 7.91453C135.562 7.86281 135.588 7.8111 135.614 7.75781Z" fill="#0FAC8E"/>
<path d="M147.638 5.6416C147.689 5.66746 147.741 5.69332 147.794 5.71996C147.794 5.77168 147.794 5.82339 147.794 5.87668C147.665 5.87668 147.536 5.87668 147.404 5.87668C147.404 5.82496 147.404 5.77324 147.404 5.71996C147.481 5.6941 147.558 5.66824 147.638 5.6416Z" fill="#0FAC8E"/>
<path d="M139.908 5.25C140.037 5.25 140.166 5.25 140.299 5.25C140.273 5.30172 140.247 5.35343 140.221 5.40672C140.118 5.40672 140.015 5.40672 139.908 5.40672C139.908 5.355 139.908 5.30328 139.908 5.25Z" fill="#0FAC8E"/>
<path d="M160.832 14.4961C160.935 14.522 161.038 14.5478 161.144 14.5745C161.028 14.652 161.028 14.652 160.91 14.7312C160.884 14.6536 160.859 14.576 160.832 14.4961Z" fill="#0FAC8E"/>
<path d="M155.445 11.5967C155.548 11.5967 155.651 11.5967 155.757 11.5967C155.732 11.6743 155.706 11.7518 155.679 11.8318C155.602 11.7542 155.525 11.6766 155.445 11.5967Z" fill="#0FAC8E"/>
<path d="M131.945 2.74219C132.048 2.74219 132.151 2.74219 132.257 2.74219C132.231 2.81976 132.206 2.89734 132.179 2.97726C132.102 2.89969 132.024 2.82211 131.945 2.74219Z" fill="#0FAC8E"/>
<path d="M150.058 15.9854C150.135 16.0112 150.212 16.0371 150.292 16.0637C150.266 16.1154 150.241 16.1671 150.214 16.2204C150.162 16.2204 150.111 16.2204 150.058 16.2204C150.058 16.1429 150.058 16.0653 150.058 15.9854Z" fill="#0FAC8E"/>
<path d="M156.148 12.8506C156.2 12.8506 156.251 12.8506 156.305 12.8506C156.279 12.954 156.253 13.0575 156.226 13.164C156.2 13.0606 156.174 12.9572 156.148 12.8506Z" fill="#0FAC8E"/>
<path d="M159.271 12.0674C159.387 12.145 159.387 12.145 159.505 12.2241C159.402 12.2241 159.299 12.2241 159.193 12.2241C159.218 12.1724 159.244 12.1207 159.271 12.0674Z" fill="#0FAC8E"/>
<path d="M156.382 10.9697C156.459 10.9697 156.536 10.9697 156.616 10.9697C156.616 11.0473 156.616 11.1249 156.616 11.2048C156.565 11.2048 156.513 11.2048 156.46 11.2048C156.434 11.1272 156.408 11.0497 156.382 10.9697Z" fill="#0FAC8E"/>
<path d="M136.317 7.83594C136.394 7.83594 136.471 7.83594 136.551 7.83594C136.525 7.91351 136.5 7.99109 136.473 8.07101C136.422 8.04515 136.37 8.0193 136.317 7.99265C136.317 7.94094 136.317 7.88922 136.317 7.83594Z" fill="#0FAC8E"/>
<path d="M136.863 7.75781C136.915 7.75781 136.967 7.75781 137.02 7.75781C136.994 7.83539 136.968 7.91296 136.942 7.99289C136.89 7.99289 136.838 7.99289 136.785 7.99289C136.811 7.91531 136.837 7.83774 136.863 7.75781Z" fill="#0FAC8E"/>
<path d="M134.756 7.75781C134.833 7.75781 134.91 7.75781 134.99 7.75781C134.99 7.83539 134.99 7.91296 134.99 7.99289C134.938 7.99289 134.887 7.99289 134.834 7.99289C134.808 7.91531 134.782 7.83774 134.756 7.75781Z" fill="#0FAC8E"/>
<path d="M148.965 6.0332C149.042 6.05906 149.119 6.08492 149.199 6.11156C149.173 6.16328 149.148 6.21499 149.121 6.26828C149.069 6.26828 149.018 6.26828 148.965 6.26828C148.965 6.1907 148.965 6.11313 148.965 6.0332Z" fill="#0FAC8E"/>
<path d="M149.277 5.95508C149.355 5.98094 149.432 6.00679 149.512 6.03344C149.486 6.08515 149.46 6.13687 149.433 6.19015C149.382 6.19015 149.33 6.19015 149.277 6.19015C149.277 6.11258 149.277 6.035 149.277 5.95508Z" fill="#0FAC8E"/>
<path d="M134.365 4.15332C134.443 4.15332 134.52 4.15332 134.599 4.15332C134.574 4.23089 134.548 4.30847 134.521 4.38839C134.47 4.36254 134.418 4.33668 134.365 4.31004C134.365 4.25832 134.365 4.2066 134.365 4.15332Z" fill="#0FAC8E"/>
<path d="M120.156 1.25391C120.259 1.25391 120.362 1.25391 120.468 1.25391C120.468 1.30562 120.468 1.35734 120.468 1.41062C120.365 1.38476 120.262 1.35891 120.156 1.33226C120.156 1.30641 120.156 1.28055 120.156 1.25391Z" fill="#0FAC8E"/>
<path d="M90.4875 0.391602C90.5648 0.41746 90.6421 0.443318 90.7218 0.46996C90.696 0.547534 90.6702 0.625109 90.6437 0.705034C90.5922 0.601602 90.5406 0.498169 90.4875 0.391602Z" fill="#0FAC8E"/>
<path d="M24.3591 0.235352C24.4364 0.26121 24.5137 0.287068 24.5934 0.31371C24.5676 0.365426 24.5418 0.417143 24.5153 0.470426C24.4637 0.470426 24.4122 0.470426 24.3591 0.470426C24.3591 0.392852 24.3591 0.315277 24.3591 0.235352Z" fill="#0FAC8E"/>
<path d="M76.7466 18.0225C76.8239 18.0483 76.9012 18.0742 76.9808 18.1008C76.8649 18.1784 76.8649 18.1784 76.7466 18.2575C76.7466 18.18 76.7466 18.1024 76.7466 18.0225Z" fill="#0FAC8E"/>
<path d="M116.408 15.75C116.485 15.75 116.563 15.75 116.642 15.75C116.642 15.8017 116.642 15.8534 116.642 15.9067C116.565 15.9067 116.488 15.9067 116.408 15.9067C116.408 15.855 116.408 15.8033 116.408 15.75Z" fill="#0FAC8E"/>
<path d="M163.643 14.418C163.695 14.418 163.747 14.418 163.8 14.418C163.8 14.4955 163.8 14.5731 163.8 14.653C163.748 14.653 163.696 14.653 163.643 14.653C163.643 14.5755 163.643 14.4979 163.643 14.418Z" fill="#0FAC8E"/>
<path d="M160.676 13.7129C160.728 13.7129 160.78 13.7129 160.833 13.7129C160.833 13.7905 160.833 13.868 160.833 13.948C160.781 13.948 160.729 13.948 160.676 13.948C160.676 13.8704 160.676 13.7928 160.676 13.7129Z" fill="#0FAC8E"/>
<path d="M153.649 12.7725C153.752 12.7725 153.856 12.7725 153.962 12.7725C153.962 12.8242 153.962 12.8759 153.962 12.9292C153.859 12.9033 153.756 12.8775 153.649 12.8508C153.649 12.825 153.649 12.7991 153.649 12.7725Z" fill="#0FAC8E"/>
<path d="M150.214 10.1084C150.317 10.1343 150.42 10.1601 150.526 10.1868C150.423 10.1868 150.32 10.1868 150.214 10.1868C150.214 10.1609 150.214 10.135 150.214 10.1084Z" fill="#0FAC8E"/>
<path d="M147.638 9.48145C147.715 9.48145 147.792 9.48145 147.872 9.48145C147.872 9.53316 147.872 9.58488 147.872 9.63816C147.795 9.63816 147.717 9.63816 147.638 9.63816C147.638 9.58645 147.638 9.53473 147.638 9.48145Z" fill="#0FAC8E"/>
<path d="M138.659 7.36523C138.737 7.40402 138.737 7.40402 138.816 7.44359C138.79 7.52117 138.764 7.59874 138.738 7.67867C138.712 7.57523 138.686 7.4718 138.659 7.36523Z" fill="#0FAC8E"/>
<path d="M127.885 4.4668C127.962 4.4668 128.04 4.4668 128.119 4.4668C128.119 4.51851 128.119 4.57023 128.119 4.62351C128.042 4.62351 127.965 4.62351 127.885 4.62351C127.885 4.5718 127.885 4.52008 127.885 4.4668Z" fill="#0FAC8E"/>
<path d="M157.631 13.8691C157.708 13.8691 157.786 13.8691 157.865 13.8691C157.865 13.9209 157.865 13.9726 157.865 14.0259C157.788 14 157.711 13.9741 157.631 13.9475C157.631 13.9216 157.631 13.8958 157.631 13.8691Z" fill="#0FAC8E"/>
<path d="M157.865 12.9287C157.917 12.9287 157.969 12.9287 158.022 12.9287C157.996 13.0063 157.971 13.0839 157.944 13.1638C157.918 13.0862 157.892 13.0086 157.865 12.9287Z" fill="#0FAC8E"/>
<path d="M145.842 9.79492C145.868 9.8725 145.894 9.95007 145.921 10.03C145.869 10.03 145.817 10.03 145.764 10.03C145.79 9.95242 145.816 9.87485 145.842 9.79492Z" fill="#0FAC8E"/>
<path d="M143.968 9.01074C144.02 9.01074 144.072 9.01074 144.125 9.01074C144.099 9.08832 144.074 9.16589 144.047 9.24582C144.021 9.16824 143.995 9.09067 143.968 9.01074Z" fill="#0FAC8E"/>
<path d="M144.202 8.69824C144.254 8.69824 144.306 8.69824 144.36 8.69824C144.334 8.77582 144.308 8.85339 144.281 8.93332C144.255 8.85574 144.229 8.77817 144.202 8.69824Z" fill="#0FAC8E"/>
<path d="M143.031 7.99219C143.109 7.99219 143.186 7.99219 143.265 7.99219C143.265 8.0439 143.265 8.09562 143.265 8.1489C143.188 8.12305 143.111 8.09719 143.031 8.07055C143.031 8.04469 143.031 8.01883 143.031 7.99219Z" fill="#0FAC8E"/>
<path d="M139.44 7.91406C139.517 7.93992 139.595 7.96578 139.674 7.99242C139.597 8.01828 139.52 8.04414 139.44 8.07078C139.44 8.01906 139.44 7.96735 139.44 7.91406Z" fill="#0FAC8E"/>
<path d="M134.287 7.75781C134.364 7.78367 134.442 7.80953 134.521 7.83617C134.496 7.88789 134.47 7.9396 134.443 7.99289C134.392 7.96703 134.34 7.94117 134.287 7.91453C134.287 7.86281 134.287 7.8111 134.287 7.75781Z" fill="#0FAC8E"/>
<path d="M145.92 6.26855C145.997 6.29441 146.075 6.32027 146.154 6.34691C146.077 6.37277 146 6.39863 145.92 6.42527C145.92 6.37355 145.92 6.32184 145.92 6.26855Z" fill="#0FAC8E"/>
<path d="M150.292 5.87695C150.344 5.87695 150.396 5.87695 150.449 5.87695C150.423 5.95453 150.398 6.0321 150.371 6.11203C150.345 6.03445 150.319 5.95688 150.292 5.87695Z" fill="#0FAC8E"/>
<path d="M4.9187 19.668C4.97056 19.668 5.02242 19.668 5.07584 19.668C5.07584 19.7197 5.07584 19.7714 5.07584 19.8247C5.02399 19.8247 4.97213 19.8247 4.9187 19.8247C4.9187 19.773 4.9187 19.7213 4.9187 19.668Z" fill="#0FAC8E"/>
<path d="M154.43 12.7725C154.482 12.7725 154.534 12.7725 154.587 12.7725C154.587 12.8242 154.587 12.8759 154.587 12.9292C154.535 12.9292 154.484 12.9292 154.43 12.9292C154.43 12.8775 154.43 12.8257 154.43 12.7725Z" fill="#0FAC8E"/>
<path d="M155.914 11.5186C155.965 11.5186 156.017 11.5186 156.071 11.5186C156.071 11.5703 156.071 11.622 156.071 11.6753C156.019 11.6753 155.967 11.6753 155.914 11.6753C155.914 11.6236 155.914 11.5718 155.914 11.5186Z" fill="#0FAC8E"/>
<path d="M146.935 10.2646C147.012 10.2905 147.09 10.3164 147.169 10.343C147.092 10.343 147.015 10.343 146.935 10.343C146.935 10.3171 146.935 10.2913 146.935 10.2646Z" fill="#0FAC8E"/>
<path d="M147.481 9.79492C147.533 9.79492 147.585 9.79492 147.639 9.79492C147.639 9.84664 147.639 9.89835 147.639 9.95164C147.587 9.95164 147.535 9.95164 147.481 9.95164C147.481 9.89992 147.481 9.84821 147.481 9.79492Z" fill="#0FAC8E"/>
<path d="M141.782 8.22754C141.834 8.22754 141.886 8.22754 141.939 8.22754C141.939 8.27926 141.939 8.33097 141.939 8.38426C141.888 8.38426 141.836 8.38426 141.782 8.38426C141.782 8.33254 141.782 8.28082 141.782 8.22754Z" fill="#0FAC8E"/>
<path d="M133.506 7.20898C133.584 7.23484 133.661 7.2607 133.741 7.28734C133.663 7.28734 133.586 7.28734 133.506 7.28734C133.506 7.26148 133.506 7.23563 133.506 7.20898Z" fill="#0FAC8E"/>
<path d="M137.878 7.13086C137.93 7.13086 137.982 7.13086 138.036 7.13086C138.036 7.18258 138.036 7.23429 138.036 7.28758C137.984 7.28758 137.932 7.28758 137.878 7.28758C137.878 7.23586 137.878 7.18414 137.878 7.13086Z" fill="#0FAC8E"/>
<path d="M133.35 6.89551C133.427 6.92137 133.505 6.94722 133.584 6.97387C133.507 6.97387 133.43 6.97387 133.35 6.97387C133.35 6.94801 133.35 6.92215 133.35 6.89551Z" fill="#0FAC8E"/>
<path d="M132.96 3.76074C133.012 3.76074 133.063 3.76074 133.117 3.76074C133.117 3.81246 133.117 3.86418 133.117 3.91746C133.065 3.91746 133.013 3.91746 132.96 3.91746C132.96 3.86574 132.96 3.81403 132.96 3.76074Z" fill="#0FAC8E"/>
<path d="M127.963 1.72363C128.015 1.77535 128.067 1.82707 128.12 1.88035C128.042 1.91914 128.042 1.91914 127.963 1.95871C127.963 1.88113 127.963 1.80356 127.963 1.72363Z" fill="#0FAC8E"/>
<path d="M120.546 1.25391C120.598 1.30562 120.65 1.35734 120.703 1.41062C120.625 1.44941 120.625 1.44941 120.546 1.48898C120.546 1.41141 120.546 1.33383 120.546 1.25391Z" fill="#0FAC8E"/>
<path d="M111.802 0.548828C111.854 0.548828 111.905 0.548828 111.959 0.548828C111.959 0.600545 111.959 0.652261 111.959 0.705545C111.907 0.705545 111.855 0.705545 111.802 0.705545C111.802 0.653828 111.802 0.602112 111.802 0.548828Z" fill="#0FAC8E"/>
<path d="M74.8728 18.8848C74.9506 18.9236 74.9506 18.9236 75.0299 18.9631C74.9522 19.0019 74.9522 19.0019 74.8728 19.0415C74.8728 18.9898 74.8728 18.938 74.8728 18.8848Z" fill="#0FAC8E"/>
<path d="M105.556 15.6719C105.634 15.7107 105.634 15.7107 105.713 15.7502C105.635 15.789 105.635 15.789 105.556 15.8286C105.556 15.7769 105.556 15.7252 105.556 15.6719Z" fill="#0FAC8E"/>
<path d="M162.315 14.2607C162.393 14.2995 162.393 14.2995 162.473 14.3391C162.395 14.3779 162.395 14.3779 162.315 14.4175C162.315 14.3657 162.315 14.314 162.315 14.2607Z" fill="#0FAC8E"/>
<path d="M163.565 13.1641C163.642 13.2028 163.642 13.2028 163.722 13.2424C163.644 13.2812 163.644 13.2812 163.565 13.3208C163.565 13.2691 163.565 13.2173 163.565 13.1641Z" fill="#0FAC8E"/>
<path d="M153.571 12.9287C153.649 12.9675 153.649 12.9675 153.728 13.0071C153.651 13.0459 153.651 13.0459 153.571 13.0854C153.571 13.0337 153.571 12.982 153.571 12.9287Z" fill="#0FAC8E"/>
<path d="M163.643 12.5371C163.721 12.5759 163.721 12.5759 163.8 12.6155C163.722 12.6543 163.722 12.6543 163.643 12.6938C163.643 12.6421 163.643 12.5904 163.643 12.5371Z" fill="#0FAC8E"/>
<path d="M159.193 12.5371C159.27 12.5759 159.27 12.5759 159.35 12.6155C159.272 12.6543 159.272 12.6543 159.193 12.6938C159.193 12.6421 159.193 12.5904 159.193 12.5371Z" fill="#0FAC8E"/>
<path d="M156.226 10.1084C156.46 10.1868 156.46 10.1868 156.46 10.1868L156.226 10.1084Z" fill="#0FAC8E"/>
<path d="M151.151 10.1084C151.229 10.1472 151.229 10.1472 151.308 10.1868C151.23 10.2255 151.23 10.2255 151.151 10.2651C151.151 10.2134 151.151 10.1617 151.151 10.1084Z" fill="#0FAC8E"/>
<path d="M142.016 7.83594C142.094 7.87472 142.094 7.87472 142.173 7.9143C142.096 7.95308 142.096 7.95308 142.016 7.99265C142.016 7.94094 142.016 7.88922 142.016 7.83594Z" fill="#0FAC8E"/>
<path d="M134.287 6.26855C134.365 6.30734 134.365 6.30734 134.444 6.34691C134.366 6.3857 134.366 6.3857 134.287 6.42527C134.287 6.37355 134.287 6.32184 134.287 6.26855Z" fill="#0FAC8E"/>
<path d="M129.212 5.71973C129.29 5.75851 129.29 5.75851 129.369 5.79808C129.292 5.83687 129.292 5.83687 129.212 5.87644C129.212 5.82473 129.212 5.77301 129.212 5.71973Z" fill="#0FAC8E"/>
<path d="M138.971 5.25C139.023 5.25 139.075 5.25 139.129 5.25C139.103 5.30172 139.077 5.35343 139.05 5.40672C139.024 5.355 138.998 5.30328 138.971 5.25Z" fill="#0FAC8E"/>
<path d="M121.171 2.66406C121.248 2.70285 121.248 2.70285 121.328 2.74242C121.25 2.78121 121.25 2.78121 121.171 2.82078C121.171 2.76906 121.171 2.71735 121.171 2.66406Z" fill="#0FAC8E"/>
<path d="M117.345 1.33203C117.397 1.38375 117.449 1.43546 117.502 1.48875C117.45 1.48875 117.398 1.48875 117.345 1.48875C117.345 1.43703 117.345 1.38531 117.345 1.33203Z" fill="#0FAC8E"/>
<path d="M143.89 8.69824C144.047 8.7766 144.047 8.7766 144.047 8.7766L143.89 8.69824Z" fill="#0FAC8E"/>
<path d="M123.747 2.35059C123.904 2.42894 123.904 2.42894 123.904 2.42894L123.747 2.35059Z" fill="#0FAC8E"/>
</g>
<defs>
<clipPath id="clip0_947_12">
<rect width="167" height="21" fill="white"/>
</clipPath>
</defs>
</svg>
