<svg width="158" height="38" viewBox="0 0 158 38" fill="none" xmlns="http://www.w3.org/2000/svg">
<path d="M75.8144 21.9481C74.1791 21.9481 72.7483 21.6415 71.5219 21.0283C70.3125 20.398 69.3671 19.5463 68.6857 18.4732C68.0214 17.3831 67.6892 16.1481 67.6892 14.7684C67.6892 13.3887 68.0129 12.1623 68.6602 11.0892C69.3245 9.99903 70.2358 9.15587 71.3941 8.55969C72.5524 7.94648 73.8555 7.63988 75.3034 7.63988C76.6661 7.63988 77.9095 7.92093 79.0338 8.48304C80.158 9.02811 81.0523 9.83721 81.7166 10.9103C82.3809 11.9834 82.7131 13.2865 82.7131 14.8195C82.7131 14.9899 82.7046 15.1857 82.6875 15.4072C82.6705 15.6286 82.6535 15.833 82.6364 16.0204H71.6752V13.4654H80.0558L78.2161 14.1808C78.2332 13.5505 78.1139 13.0055 77.8584 12.5455C77.62 12.0856 77.2793 11.7279 76.8364 11.4724C76.4106 11.2169 75.9081 11.0892 75.3289 11.0892C74.7498 11.0892 74.2387 11.2169 73.7959 11.4724C73.37 11.7279 73.0379 12.0942 72.7994 12.5711C72.5609 13.031 72.4417 13.5761 72.4417 14.2063V14.9473C72.4417 15.6286 72.5779 16.2163 72.8505 16.7102C73.1401 17.2042 73.5489 17.5875 74.0769 17.86C74.605 18.1155 75.2352 18.2433 75.9677 18.2433C76.649 18.2433 77.2282 18.1496 77.7051 17.9622C78.1991 17.7578 78.6846 17.4512 79.1615 17.0424L81.7166 19.6996C81.0523 20.4321 80.2346 20.9942 79.2637 21.386C78.2928 21.7607 77.143 21.9481 75.8144 21.9481Z" fill="#005758"/>
<path d="M90.9813 21.9481C89.7208 21.9481 88.571 21.6585 87.532 21.0794C86.5099 20.4832 85.6923 19.6571 85.0791 18.601C84.4659 17.5279 84.1593 16.2503 84.1593 14.7684C84.1593 13.3035 84.4659 12.0431 85.0791 10.987C85.6923 9.91386 86.5099 9.08773 87.532 8.50859C88.571 7.92945 89.7208 7.63988 90.9813 7.63988C92.1737 7.63988 93.1787 7.89538 93.9963 8.40639C94.831 8.9174 95.4612 9.70094 95.8871 10.757C96.3129 11.8131 96.5258 13.1502 96.5258 14.7684C96.5258 16.4207 96.3214 17.7748 95.9126 18.8309C95.5038 19.887 94.8906 20.6705 94.073 21.1816C93.2553 21.6926 92.2248 21.9481 90.9813 21.9481ZM92.0034 18.09C92.5484 18.09 93.0339 17.9622 93.4597 17.7067C93.9026 17.4512 94.2518 17.0765 94.5073 16.5825C94.7628 16.0715 94.8906 15.4668 94.8906 14.7684C94.8906 14.07 94.7628 13.4824 94.5073 13.0055C94.2518 12.5115 93.9026 12.1367 93.4597 11.8812C93.0339 11.6257 92.5484 11.498 92.0034 11.498C91.4412 11.498 90.9387 11.6257 90.4959 11.8812C90.07 12.1367 89.7293 12.5115 89.4738 13.0055C89.2183 13.4824 89.0906 14.07 89.0906 14.7684C89.0906 15.4668 89.2183 16.0715 89.4738 16.5825C89.7293 17.0765 90.07 17.4512 90.4959 17.7067C90.9387 17.9622 91.4412 18.09 92.0034 18.09ZM95.0439 21.7181V19.3419L95.0694 14.7684L94.8139 10.1949V2.75977H99.6686V21.7181H95.0439Z" fill="#005758"/>
<path d="M137.011 21.7181V7.86983H141.866V21.7181H137.011Z" fill="#005758"/>
<path d="M153.478 21.7181V19.1375L153.146 18.4988V13.7464C153.146 12.9799 152.907 12.3922 152.43 11.9834C151.97 11.5576 151.229 11.3447 150.207 11.3447C149.543 11.3447 148.87 11.4554 148.189 11.6768C147.507 11.8812 146.928 12.1708 146.451 12.5455L144.816 9.24955C145.6 8.73854 146.537 8.34677 147.627 8.07423C148.734 7.78467 149.833 7.63988 150.923 7.63988C153.171 7.63988 154.909 8.1594 156.135 9.19845C157.379 10.2205 158 11.8301 158 14.0275V21.7181H153.478ZM149.39 21.9481C148.282 21.9481 147.346 21.7607 146.579 21.386C145.813 21.0112 145.225 20.5002 144.816 19.8529C144.424 19.2057 144.228 18.4817 144.228 17.6812C144.228 16.8295 144.441 16.097 144.867 15.4838C145.31 14.8536 145.983 14.3767 146.886 14.053C147.789 13.7123 148.955 13.542 150.386 13.542H153.657V16.0715H151.05C150.267 16.0715 149.713 16.1992 149.39 16.4547C149.083 16.7102 148.93 17.0509 148.93 17.4768C148.93 17.9026 149.092 18.2433 149.415 18.4988C149.739 18.7543 150.182 18.882 150.744 18.882C151.272 18.882 151.749 18.7543 152.175 18.4988C152.618 18.2262 152.941 17.8174 153.146 17.2724L153.81 19.0609C153.554 20.0148 153.052 20.7387 152.302 21.2327C151.57 21.7096 150.599 21.9481 149.39 21.9481Z" fill="#005758"/>
<path d="M69.4765 28.4851C70.7195 28.4851 71.4081 29.2721 71.4081 30.4167V33.2158H70.5407V32.5898C70.2008 33.0637 69.5748 33.3231 69.0025 33.3231C68.0277 33.3231 67.2944 32.7507 67.2944 31.8475C67.2944 30.9265 68.1261 30.3094 69.1456 30.3094C69.6017 30.3094 70.0935 30.4078 70.5407 30.5598V30.4167C70.5407 29.8354 70.2724 29.2184 69.3513 29.2184C68.8952 29.2184 68.457 29.3973 68.0546 29.6029L67.7237 28.9501C68.3854 28.6193 68.9667 28.4851 69.4765 28.4851ZM69.1814 32.6255C69.7537 32.6255 70.3886 32.3394 70.5407 31.7671V31.15C70.1561 31.0338 69.7358 30.9712 69.2797 30.9712C68.6627 30.9712 68.144 31.3199 68.144 31.8207C68.144 32.3215 68.5911 32.6255 69.1814 32.6255Z" fill="#005758"/>
<path d="M74.8196 33.3231C73.496 33.3231 72.3782 32.2142 72.3782 30.8996C72.3782 29.5851 73.505 28.4851 74.8196 28.4851C75.4903 28.4851 76.0805 28.7623 76.5276 29.2005L75.9285 29.755C75.6423 29.442 75.2399 29.2542 74.8196 29.2542C73.9789 29.2542 73.2725 30.0054 73.2725 30.8996C73.2725 31.8028 73.9789 32.554 74.8196 32.554C75.2488 32.554 75.6602 32.3573 75.9553 32.0353L76.5544 32.5808C76.1073 33.0369 75.5081 33.3231 74.8196 33.3231Z" fill="#005758"/>
<path d="M79.2314 28.4851C80.4744 28.4851 81.163 29.2721 81.163 30.4167V33.2158H80.2956V32.5898C79.9558 33.0637 79.3298 33.3231 78.7574 33.3231C77.7827 33.3231 77.0494 32.7507 77.0494 31.8475C77.0494 30.9265 77.881 30.3094 78.9005 30.3094C79.3566 30.3094 79.8485 30.4078 80.2956 30.5598V30.4167C80.2956 29.8354 80.0273 29.2184 79.1062 29.2184C78.6501 29.2184 78.2119 29.3973 77.8095 29.6029L77.4786 28.9501C78.1404 28.6193 78.7217 28.4851 79.2314 28.4851ZM78.9363 32.6255C79.5086 32.6255 80.1436 32.3394 80.2956 31.7671V31.15C79.9111 31.0338 79.4907 30.9712 79.0347 30.9712C78.4176 30.9712 77.8989 31.3199 77.8989 31.8207C77.8989 32.3215 78.3461 32.6255 78.9363 32.6255Z" fill="#005758"/>
<path d="M85.9517 26.9649H86.837V33.2158H85.9517V32.4288C85.594 32.9833 85.0216 33.3231 84.3152 33.3231C83.09 33.3231 82.1868 32.3215 82.1868 30.8996C82.1868 29.4867 83.09 28.4851 84.3152 28.4851C85.0216 28.4851 85.594 28.8249 85.9517 29.3794V26.9649ZM84.5208 32.554C85.3615 32.554 85.9517 31.8654 85.9517 30.8996C85.9517 29.9338 85.3615 29.2542 84.5208 29.2542C83.6802 29.2542 83.0811 29.9338 83.0811 30.8996C83.0811 31.8654 83.6802 32.554 84.5208 32.554Z" fill="#005758"/>
<path d="M90.2937 32.5898C90.7945 32.5898 91.3757 32.3662 91.6619 32.0622L92.1806 32.6077C91.7782 33.0458 90.9644 33.3231 90.3115 33.3231C89.0327 33.3231 87.9238 32.3126 87.9238 30.8907C87.9238 29.5046 88.9701 28.4851 90.2489 28.4851C91.6619 28.4851 92.4846 29.5403 92.4846 31.1858H88.7913C88.8986 31.9996 89.4709 32.5898 90.2937 32.5898ZM90.2668 29.2184C89.5246 29.2184 88.9344 29.7371 88.8002 30.533H91.6261C91.5367 29.7907 91.0717 29.2184 90.2668 29.2184Z" fill="#005758"/>
<path d="M98.6993 28.4851C99.6651 28.4851 100.363 29.2274 100.363 30.2736V33.2158H99.5041V30.4078C99.5041 29.7281 99.0928 29.2542 98.5204 29.2542C97.8587 29.2542 97.3847 29.6924 97.3847 30.3273V33.2158H96.5173V30.4078C96.5173 29.7281 96.1148 29.2542 95.5425 29.2542C94.8718 29.2542 94.4068 29.6924 94.4068 30.3273V33.2158H93.5214V28.5924H94.4068V29.2542C94.6393 28.7802 95.1222 28.4851 95.7214 28.4851C96.4547 28.4851 97.0359 28.9144 97.2684 29.5851C97.4115 28.9322 97.9749 28.4851 98.6993 28.4851Z" fill="#005758"/>
<path d="M102.312 34.8254C101.999 34.8254 101.677 34.7539 101.436 34.6287L101.633 33.9491C101.812 34.0474 102.017 34.0921 102.196 34.0921C102.482 34.0921 102.679 34.0027 102.831 33.7344L103.063 33.2426L101.078 28.5924H102.026L103.511 32.241L104.915 28.5924H105.836L103.797 33.6361C103.466 34.4677 102.974 34.8165 102.312 34.8254Z" fill="#005758"/>
<path d="M102.741 7.66542C105.422 7.66542 107.595 9.83875 107.595 12.5197V14.615C107.595 15.6882 107.791 16.455 108.183 16.9149C108.587 17.3692 109.149 17.5981 109.869 17.6036V21.7437H108.618C107.494 21.7437 106.48 21.5222 105.577 21.0793C104.692 20.6365 103.993 19.9465 103.482 19.0096C102.988 18.0558 102.741 16.855 102.741 15.4073V7.66542Z" fill="#005758"/>
<path d="M116.996 7.66542C114.315 7.66542 112.142 9.83875 112.142 12.5197V14.615C112.142 15.6882 111.946 16.455 111.554 16.9149C111.151 17.3692 110.588 17.5981 109.869 17.6036V21.7437H111.12C112.244 21.7437 113.257 21.5222 114.16 21.0793C115.046 20.6365 115.744 19.9465 116.255 19.0096C116.749 18.0558 116.996 16.855 116.996 15.4073V7.66542Z" fill="#005758"/>
<path d="M124.559 21.7181L118.849 7.84098H123.842L128.399 19.4394H125.89L130.678 7.84098H135.312L129.577 21.7181H124.559Z" fill="#005758"/>
<path d="M28.3549 1.20883e-10C27.8928 -3.81894e-06 27.4352 0.0904858 27.0083 0.266301C26.5814 0.442116 26.1935 0.699814 25.8667 1.02468C25.5399 1.34955 25.2808 1.73522 25.1039 2.15968C24.9271 2.58414 24.8361 3.03908 24.8361 3.49851C24.8361 3.95794 24.9271 4.41287 25.1039 4.83732C25.2808 5.26178 25.54 5.64745 25.8667 5.97231C26.1935 6.29717 26.5814 6.55487 27.0083 6.73068C27.4353 6.90649 27.8928 6.99698 28.3549 6.99698C29.2882 6.99697 30.1832 6.62838 30.8431 5.97229C31.503 5.31621 31.8738 4.42636 31.8738 3.49851C31.8738 3.03908 31.7828 2.58415 31.6059 2.15969C31.4291 1.73524 31.1699 1.34956 30.8431 1.0247C30.5164 0.69983 30.1285 0.442131 29.7015 0.266313C29.2746 0.0904954 28.817 1.9384e-06 28.3549 1.20883e-10ZM17.046 3.46471L28.3549 32.1638L39.6639 3.46471L28.3549 16.2662L17.046 3.46471ZM47.9694 12.129C47.9529 12.1294 47.9363 12.1296 47.9198 12.13C46.66 12.1441 45.411 12.4328 44.2552 12.9253C42.7068 13.5832 41.3238 14.5769 40.0915 15.7083C38.6864 17.0024 37.4633 18.4803 36.3573 20.0317C34.879 22.1145 33.6083 24.3368 32.4676 26.6178C31.6865 28.1848 28.79 33.9003 28.3558 35.1943C27.9482 33.9013 26.3813 30.7078 23.7479 25.6487C22.6434 23.533 21.4187 21.4742 20.0027 19.5486C18.956 18.1296 17.8036 16.7805 16.4934 15.5945C15.2516 14.4735 13.8568 13.4943 12.2981 12.8605C11.178 12.403 9.97334 12.1399 8.76054 12.1294C8.72231 12.1183 8.75291 12.1587 8.75132 12.1771C9.9078 17.3233 11.0646 22.4694 12.2209 27.6157C12.8127 27.8243 13.3865 28.0768 13.957 28.3348C15.6173 29.095 17.2294 29.9548 18.8173 30.8538C21.5775 32.4218 24.2596 34.1231 26.8935 35.8912C27.3676 36.2097 27.8393 36.5316 28.3106 36.8543L28.3551 36.8846C28.3559 36.8844 28.3551 36.8846 28.3999 36.8542C31.2105 34.9275 34.0719 33.0715 37.0184 31.3558C38.7609 30.345 40.5308 29.3777 42.3546 28.519C43.0299 28.2043 43.7088 27.8994 44.4094 27.6434C44.452 27.6286 44.5049 27.623 44.4999 27.5662C45.6564 22.4205 46.8127 17.2747 47.9694 12.129ZM4.63792 13.997C4.37912 13.9973 4.10491 14.0123 3.81616 14.0465C4.25616 16.5072 7.73921 32.1587 7.73921 32.1587C7.73921 32.1587 18.636 33.6666 26.3715 36.5859C20.6945 33.4682 16.2428 30.864 10.6911 29.1385L7.50587 14.7206C7.50587 14.7206 6.44951 13.9952 4.63792 13.997ZM52.1108 13.997C50.2992 13.9952 49.2429 14.7206 49.2429 14.7206L46.0576 29.1385C40.5059 30.864 36.0543 33.4682 30.3772 36.5859C38.1127 33.6666 49.0095 32.1587 49.0095 32.1587C49.0095 32.1587 52.4926 16.5072 52.9326 14.0465C52.6438 14.0123 52.3696 13.9972 52.1108 13.997ZM0.800968 16.0173C0.512887 16.0186 0.233343 16.0448 0 16.1125C0.233343 17.4271 4.50561 37.0499 4.50561 37.0499C9.19497 35.6499 13.5841 35.1806 23.3769 36.4506C22.3343 35.9253 11.62 34.2255 6.51115 33.8958C5.63116 29.9587 2.6062 16.2338 2.6062 16.2338C2.6062 16.2338 1.66521 16.0133 0.800968 16.0173ZM55.9089 16.0173C55.0446 16.0133 54.1036 16.2338 54.1036 16.2338C54.1036 16.2338 51.0787 29.9587 50.1987 33.8958C45.0899 34.2255 34.3756 35.9253 33.3329 36.4506C43.1258 35.1806 47.5149 35.6499 52.2042 37.0499C52.2042 37.0499 56.4765 17.4271 56.7098 16.1125C56.4765 16.0448 56.1969 16.0186 55.9089 16.0173Z" fill="url(#paint0_linear_911_1245)"/>
<defs>
<linearGradient id="paint0_linear_911_1245" x1="28.3549" y1="0" x2="28.3549" y2="37.0499" gradientUnits="userSpaceOnUse">
<stop stop-color="#0F8081"/>
<stop offset="1" stop-color="#005758"/>
</linearGradient>
</defs>
</svg>
