<svg width="79" height="79" viewBox="0 0 79 79" fill="none" xmlns="http://www.w3.org/2000/svg">
<path d="M36.8748 21.3957C42.551 18.5867 46.8894 13.651 48.9469 7.66124C49.0786 7.29916 51.2182 19.4619 58.4269 21.8072C58.4269 21.8072 49.704 25.9876 47.6385 34.2661C47.6467 34.3813 47.1448 27.691 36.8748 21.3957Z" fill="#DDEF37"/>
<path d="M49.4573 60.7888C54.1308 58.4729 57.6985 54.4023 59.3817 49.4654C59.4886 49.1692 61.2414 59.1758 67.1994 61.1015C67.1994 61.1015 60.0318 64.5413 58.3283 71.3468C58.3036 71.4373 57.8922 65.9402 49.4573 60.7888Z" fill="#DDEF37"/>
<path d="M11.8005 45.5815C16.3116 43.3422 19.7589 39.416 21.3957 34.6532C21.4945 34.3569 23.1979 44.0179 28.9501 45.8777C28.9501 45.8777 22.0212 49.1694 20.3836 55.7527C20.3424 55.8597 19.9474 50.5519 11.8005 45.5815Z" fill="#DDEF37"/>
</svg>
