<svg width="75" height="75" viewBox="0 0 75 75" fill="none" xmlns="http://www.w3.org/2000/svg">
<path d="M49.2188 46.5078C48.2353 46.2675 47.3755 45.6721 46.8047 44.8359C46.6875 44.6797 46.5 44.4609 46.4297 44.3594L46.1719 44.0156C45.9922 43.7813 45.8516 43.6016 45.6797 43.3984C45.5078 43.1953 45.1094 42.8984 44.8516 42.6172L44.7266 42.5L44.6328 42.3984C44.5952 42.353 44.5533 42.3111 44.5078 42.2734C44.4071 42.1697 44.2756 42.1012 44.1328 42.0781C43.8047 42.0781 43.7344 42.4297 43.6719 42.7578C43.6719 42.7969 43.6719 43.0156 43.6719 43.1484C43.6719 43.2813 43.6719 43.4609 43.6719 43.6172C43.6731 43.9235 43.6992 44.2292 43.75 44.5313C43.8624 45.2377 44.0755 45.9244 44.3828 46.5703C44.4922 46.7656 44.3828 46.9688 44 47.0547C43.7166 47.1053 43.425 47.0839 43.1519 46.9924C42.8789 46.901 42.6333 46.7424 42.4375 46.5313C42.2447 46.3147 42.0672 46.085 41.9063 45.8438C41.7789 45.5967 41.6843 45.3341 41.625 45.0625C41.5064 44.5808 41.4331 44.0891 41.4063 43.5938L41.3594 42.8516C41.3483 42.4525 41.364 42.0532 41.4063 41.6563C41.4634 41.3066 41.5896 40.9718 41.7774 40.6714C41.9651 40.371 42.2108 40.1109 42.5 39.9063C42.855 39.7052 43.2529 39.5918 43.6605 39.5755C44.0682 39.5592 44.4739 39.6404 44.8438 39.8125C45.2399 39.9771 45.6171 40.184 45.9688 40.4297C46.2458 40.6048 46.5071 40.8034 46.75 41.0234C47.2213 41.4571 47.6575 41.9273 48.0547 42.4297C48.5235 42.9922 48.5313 43.0781 48.7422 43.3125C48.8478 43.4622 49.0027 43.5701 49.1797 43.6172C49.2694 43.6195 49.3578 43.5957 49.4342 43.5485C49.5105 43.5013 49.5714 43.4329 49.6094 43.3516C49.6883 43.237 49.7538 43.1138 49.8047 42.9844C49.8402 42.9133 49.8715 42.8403 49.8985 42.7656L50.0235 42.4453L50.6328 40.8828C50.9244 39.9782 51.3093 39.1063 51.7813 38.2813C51.8972 38.0867 52.0277 37.9012 52.1719 37.7266C52.2639 37.5999 52.3805 37.4931 52.5148 37.4126C52.649 37.332 52.7981 37.2794 52.9531 37.2578C53.2373 37.3187 53.493 37.4726 53.6797 37.6953C53.7817 37.7862 53.8757 37.8855 53.961 37.9922C54.0829 38.1759 54.1531 38.3891 54.1641 38.6094C54.2381 38.8379 54.2381 39.084 54.1641 39.3125C53.6172 40.4656 53.1322 41.6469 52.711 42.8516L52.3438 43.75C52.2598 44.0181 52.1553 44.2792 52.0313 44.5313C51.9338 44.7857 51.8052 45.0271 51.6485 45.25C51.5124 45.4673 51.3496 45.6668 51.1641 45.8438L50.8985 46.0938L50.5938 46.2813C50.169 46.5207 49.6802 46.6218 49.1953 46.5703L49.2188 46.5078Z" fill="#DDEF37"/>
<path d="M38.7967 55.9459C36.0991 52.7326 33.6568 49.3133 31.492 45.7194C29.2043 41.9887 27.6899 37.8361 27.0389 33.5084C26.5468 30.2332 26.8442 26.8878 27.9061 23.7506C28.9577 20.9517 30.7542 18.4934 33.1014 16.6413C35.4352 14.8472 38.2045 13.7066 41.1248 13.3366C43.9549 12.965 46.8314 13.1885 49.5702 13.9928C52.3251 14.8127 54.8256 16.3211 56.8358 18.3756C58.5448 20.187 59.9319 22.277 60.9373 24.5553C61.9079 26.7551 62.6513 29.0483 63.1561 31.3991C63.48 32.9103 63.6941 34.4429 63.7967 35.985C63.9201 37.4894 63.9618 38.9995 63.9217 40.5084C63.8813 43.5001 63.6674 46.4869 63.2811 49.4538C63.0311 51.2897 62.4998 51.0163 61.9217 49.4069C61.1471 46.8707 60.7059 44.2445 60.6092 41.5944C60.5545 40.11 60.4373 38.6334 60.3436 37.1881C60.2596 35.7763 60.0953 34.3703 59.8514 32.9772C59.3288 30.232 58.4379 27.5699 57.203 25.0631C56.587 23.8822 55.8486 22.7693 54.9998 21.7428C54.1592 20.7667 53.1893 19.9099 52.117 19.1959C51.0083 18.5075 49.8199 17.9565 48.578 17.5553C47.2601 17.161 45.9031 16.9121 44.5311 16.8131C41.2507 16.514 37.9809 17.4874 35.3983 19.5319C32.8577 21.6755 31.2222 24.7009 30.8202 28.0006C30.5827 29.8598 30.6116 31.7434 30.9061 33.5944C31.2261 35.484 31.75 37.3333 32.4686 39.11C34.0712 42.7348 36.1181 46.1464 38.5623 49.2663C39.8436 50.9694 41.1795 52.6413 42.5545 54.3053L46.4139 58.9381C46.5389 59.0788 46.6405 59.235 46.7733 59.36C46.9061 59.485 47.1327 59.3131 47.2967 59.2506C47.4608 59.1881 47.7264 59.0084 47.9373 58.8756L49.0936 58.0944C49.8748 57.5631 50.703 57.0241 51.5389 56.5319C51.953 56.2741 52.3826 56.0163 52.8123 55.7506L53.4998 55.3756C53.7655 55.235 53.992 55.11 54.328 54.9537C55.4918 54.3744 56.7262 53.9489 57.9998 53.6881C59.0729 53.4775 60.1767 53.4775 61.2498 53.6881C62.2655 53.8708 63.2069 54.3428 63.9608 55.0475C64.1489 55.2279 64.2889 55.4525 64.3681 55.7008C64.4472 55.9492 64.463 56.2134 64.4139 56.4694C64.3005 56.8832 64.0979 57.2672 63.8202 57.5944C63.2001 58.3724 62.4682 59.0543 61.6483 59.6178C60.867 60.1647 59.953 60.7116 59.0467 61.2584L57.7264 62.0397L57.2264 62.3678L56.7967 62.6647C56.2411 63.0447 55.7185 63.4706 55.2342 63.9381C54.8303 64.3012 54.5081 64.7459 54.2889 65.2428L54.242 65.3834L53.117 65.0163C53.1085 65.0121 53.0992 65.01 53.0897 65.01C53.0802 65.01 53.0709 65.0121 53.0623 65.0163C53.0623 65.0163 53.0623 65.0163 53.0623 64.9616L53.1248 64.8366C53.1561 64.7542 53.172 64.6668 53.1717 64.5788C53.2164 64.3208 53.2373 64.0593 53.2342 63.7975H53.3983C53.6717 63.7506 54.0077 63.6647 54.3358 63.5788L56.4061 63.0006C58.367 62.4694 61.0077 61.735 62.703 61.8756C63.1694 61.9004 63.6311 61.9818 64.078 62.1178C64.4983 62.2667 64.8819 62.5038 65.203 62.8131C65.3255 63.0119 65.4177 63.2278 65.4764 63.4538C65.5068 63.6348 65.5068 63.8196 65.4764 64.0006C65.4091 64.4864 65.2585 64.9568 65.0311 65.3913C64.7581 65.9112 64.4165 66.392 64.0155 66.8209C63.1602 67.6549 62.2407 68.4203 61.2655 69.11L60.742 69.5006C60.617 69.6014 60.4866 69.6953 60.3514 69.7819C60.1717 69.8834 60.0077 69.9694 59.8514 70.0397C59.5604 70.1669 59.2601 70.2714 58.953 70.3522C58.6719 70.4577 58.4085 70.6052 58.1717 70.7897C57.9842 70.9147 57.8045 70.9069 57.6639 70.6256C57.5077 70.1886 57.5077 69.711 57.6639 69.2741C57.7576 68.9749 57.8778 68.6846 58.0233 68.4069C58.0975 68.251 58.181 68.0997 58.2733 67.9538L58.3436 67.8366C58.3436 67.8366 58.3436 67.8366 58.3436 67.7819V67.6881C58.4286 67.4732 58.5332 67.2666 58.6561 67.0709C58.7327 66.9578 58.7981 66.8374 58.8514 66.7116C58.8596 66.6624 58.8596 66.6123 58.8514 66.5631C58.8548 66.5455 58.8543 66.5274 58.8501 66.5099C58.8458 66.4925 58.8379 66.4762 58.8267 66.4621C58.8156 66.448 58.8016 66.4365 58.7856 66.4283C58.7697 66.4201 58.7521 66.4155 58.7342 66.4147C58.4353 66.4095 58.1398 66.4794 57.8748 66.6178L57.5936 66.7428L57.4842 66.8053H57.4373L57.3202 66.8522L55.6326 67.3053C54.9624 67.4883 54.2814 67.6292 53.5936 67.7272H53.1717H52.828C52.6457 67.7178 52.465 67.689 52.2889 67.6413C52.1395 67.6062 51.9932 67.5592 51.8514 67.5006L51.6248 67.3991C51.4371 67.2936 51.2616 67.1679 51.1014 67.0241C50.7726 66.7372 50.5214 66.3721 50.3712 65.9624C50.221 65.5527 50.1766 65.1117 50.242 64.6803C50.242 64.5788 50.242 64.4694 50.2889 64.3756C50.3358 64.2819 50.3592 64.1413 50.3514 64.1725V64.1256V64.0319L50.4295 63.8366C50.5152 63.5944 50.6252 63.3614 50.7577 63.1413C50.8645 62.9299 50.99 62.7286 51.1326 62.5397C51.5946 61.8849 52.1381 61.2916 52.7498 60.7741C53.2967 60.3053 53.8358 59.8912 54.3748 59.5084L55.1561 59.0084L55.3826 58.8522L55.1795 58.9616L54.8514 59.1412C54.5701 59.2975 54.2889 59.4694 54.0076 59.6334C52.8826 60.3209 51.7655 61.0866 50.5545 61.8913L50.0936 62.1959L49.7108 62.4459L49.2655 62.7194C48.6972 63.0812 48.0856 63.3699 47.4452 63.5788C46.8495 63.7427 46.2205 63.7427 45.6248 63.5788C45.4798 63.5445 45.3456 63.4747 45.2342 63.3756L44.8592 63.1178L44.078 62.6022L38.5311 56.0397L38.7967 55.9459Z" fill="#DDEF37"/>
<path d="M45.9843 38.1336C46.663 38.5737 47.2826 39.0988 47.8281 39.6961L48.164 40.0632V40.1336L48.25 40.2898L48.4687 40.6883C48.5078 40.7429 48.5625 40.907 48.625 40.8445C48.6626 40.8008 48.6918 40.7505 48.7109 40.6961C48.7812 40.5164 48.7578 40.2429 48.8515 40.0554C48.8515 40.0554 48.8515 40.0554 48.8515 39.9695L48.9375 39.657L49.1406 38.9695L49.2656 38.5867L49.4687 38.1023C49.6141 37.7655 49.792 37.4436 50 37.1414C50.3421 36.5884 50.8318 36.142 51.414 35.8523C51.991 35.5783 52.6442 35.5094 53.2656 35.657C53.895 35.7979 54.4816 36.0872 54.9765 36.5007C55.2247 36.7125 55.462 36.9368 55.6875 37.1726C55.875 37.4148 56.0234 37.6726 56.1875 37.9539C56.6603 38.8285 56.9475 39.7913 57.0312 40.782C57.0859 41.1961 57.0859 41.5633 57.125 41.9851C57.164 42.407 57.125 42.7664 57.125 43.157C57.1336 43.9107 57.1023 44.6644 57.0312 45.4148C56.9375 46.3679 56.8203 47.3054 56.6718 48.2273C56.5937 48.6882 56.3593 49.1257 56.2734 49.5789C56.1875 50.032 56.0781 50.4851 56 50.9382C55.9218 51.3914 55.6406 51.4304 55.3437 50.9382C55.1537 50.602 55.0017 50.2456 54.8906 49.8757C54.8046 49.6492 54.7734 49.4148 54.6875 49.157C54.5784 48.9023 54.4845 48.6415 54.4062 48.3757C54.2968 47.3992 54.3203 46.4695 54.2578 45.5476L54.1718 44.1961C54.1718 43.7586 54.1718 43.3211 54.1093 42.8992C54.071 42.1296 53.9452 41.3669 53.7343 40.6257C53.6989 40.4695 53.6465 40.3175 53.5781 40.1726C53.5234 40.0632 53.4609 39.8679 53.4296 39.8211C53.3359 39.6336 53.3203 39.532 53.2578 39.407C53.2185 39.3258 53.1591 39.2559 53.0853 39.2039C53.0115 39.152 52.9256 39.1197 52.8359 39.1101C52.747 39.1258 52.6634 39.1633 52.5925 39.2192C52.5216 39.2751 52.4657 39.3477 52.4296 39.4304C52.3851 39.5154 52.3485 39.6044 52.3203 39.6961C52.2656 39.8445 52.1796 40.0945 52.1093 40.3445L51.9921 40.7507L51.8203 41.4539L51.5156 42.8679C51.3832 43.6892 51.0653 44.4694 50.5859 45.1492C50.495 45.2607 50.3957 45.3652 50.289 45.4617C50.1718 45.5736 50.03 45.6565 49.875 45.7039C49.7421 45.7274 49.6052 45.6995 49.4921 45.6258C49.3828 45.5633 49.2968 45.5398 49.164 45.4539L48.7812 45.2195L48.3281 44.8679L48.2109 44.782L48.0859 44.6179L47.8437 44.2898L47.3593 43.6414L46.875 42.9695L46.375 42.3914C46.289 42.2976 46.2109 42.1961 46.1171 42.1101L45.9531 41.9304C45.8437 41.8289 45.75 41.7117 45.6406 41.6179C45.2365 41.2144 44.7695 40.8793 44.2578 40.6257C44.0769 40.5431 43.874 40.5212 43.6796 40.5632C43.4878 40.6274 43.3192 40.7471 43.1953 40.907C42.9987 41.1776 42.9122 41.5126 42.9531 41.8445C42.9913 42.3514 43.1073 42.8494 43.2968 43.3211C43.7127 44.376 44.2614 45.3736 44.9296 46.2898C46.024 47.7055 47.2509 49.0135 48.5937 50.1961C48.8828 50.4695 49.1875 50.7117 49.4687 50.9773C50.5312 52.0007 50.7343 52.4304 50.4609 53.2039C50.4104 53.3814 50.3504 53.5562 50.2812 53.7273C50.0078 54.2586 49.2031 54.1882 48.2656 53.5086C45.3635 51.3616 42.9242 48.6513 41.0937 45.5398C40.7046 44.8596 40.3903 44.1392 40.1562 43.3914C40.0303 42.9517 39.9414 42.5022 39.8906 42.0476C39.8701 41.7485 39.8701 41.4483 39.8906 41.1492C39.9161 40.833 39.979 40.5209 40.0781 40.2195C40.1207 40.0679 40.1729 39.9192 40.2343 39.7742L40.4609 39.3601C40.6108 39.0804 40.7916 38.8183 41 38.5789C41.2187 38.3757 41.4531 38.1726 41.6953 37.9851C41.9447 37.8228 42.2058 37.6791 42.4765 37.5554C43.067 37.3807 43.688 37.3335 44.2981 37.417C44.9083 37.5005 45.4937 37.7128 46.0156 38.0398L45.9843 38.1336Z" fill="#DDEF37"/>
<path d="M24.375 19.3133C24.6172 19.3133 24.5469 19.6493 24.2813 20.1727C24.1453 20.4128 23.965 20.6249 23.75 20.7977C23.593 20.8606 23.431 20.9103 23.2656 20.9461C23.1875 20.9461 22.2578 20.6414 21.9141 20.5711C21.6056 20.4893 21.3126 20.3573 21.0469 20.1805C20.5 19.8524 19.9297 19.5477 19.3672 19.2274C19.2396 19.157 19.1299 19.0581 19.0469 18.9383C18.7355 18.5411 18.3263 18.2315 17.8594 18.0399C17.8214 18.0098 17.7764 17.9897 17.7287 17.9815C17.6809 17.9733 17.6318 17.9773 17.5859 17.993C17.0332 17.8681 16.5236 17.5985 16.1094 17.2118C15.8906 16.7508 15.6172 16.368 15.3672 15.9461C15.3281 15.8914 15.2578 15.8836 15.2813 15.743C15.3438 15.4305 15.2109 15.3836 15.1172 15.2743C14.9746 15.1073 14.8801 14.9048 14.8438 14.6883C14.8232 14.5432 14.8232 14.3959 14.8438 14.2508C14.8438 14.118 15.0703 13.8993 15.1172 13.8836C15.1641 13.868 15.2891 13.6883 15.3672 13.5789C15.3914 13.5368 15.4202 13.4975 15.4531 13.4618C15.4531 13.4618 15.8281 13.4149 16.2344 13.3446C16.4934 13.3057 16.7567 13.3057 17.0156 13.3446L17.2578 13.4461L17.7813 13.6493L18.6797 13.9696C18.7656 13.9696 18.7969 14.1102 18.8516 14.2039C18.9063 14.2977 20.0078 14.7664 20.0469 14.8055C20.2344 14.9852 20.5078 15.0477 20.5703 15.4149C20.5703 15.4852 20.6328 15.5008 20.6797 15.5321C21.024 15.7877 21.3384 16.0812 21.6172 16.4071C21.7813 16.5633 21.9922 16.6727 22.1719 16.8133C22.1719 16.8133 22.2188 16.8914 22.2422 16.9305C22.2656 16.9696 22.2969 17.0399 22.3438 17.0633C22.7591 17.4224 23.1975 17.7538 23.6563 18.0555C23.7734 18.118 24.0938 18.7196 24.2266 18.7821C24.3594 18.8446 24.2813 19.3211 24.375 19.3133Z" fill="#DDEF37"/>
<path d="M30.0391 13.6176C30.2188 13.7738 29.9219 13.9535 29.3594 14.1098C29.1028 14.1641 28.8398 14.1825 28.5781 14.1645C28.4141 14.0863 28.2578 14.016 28.1406 13.9457C28.0234 13.8754 27.6641 13.1645 27.4766 12.891C27.3151 12.6538 27.1986 12.389 27.1328 12.1098C26.9766 11.5707 26.7813 11.0395 26.5938 10.4848C26.5661 10.356 26.5661 10.2229 26.5938 10.0941C26.645 9.63726 26.5608 9.17539 26.3516 8.76602C26.3516 8.69571 26.3516 8.61758 26.1875 8.57071C25.8747 8.14314 25.6978 7.63139 25.6797 7.10196C25.8359 6.64102 25.9141 6.19571 26.0313 5.75039C26.0313 5.68789 26.0312 5.63321 26.1094 5.55508C26.1899 5.5221 26.2561 5.46157 26.2962 5.3843C26.3363 5.30703 26.3476 5.21804 26.3281 5.13321C26.3451 4.92867 26.4151 4.73209 26.5313 4.56289C26.6213 4.45511 26.7236 4.35811 26.8359 4.27383C26.9782 4.21091 27.1359 4.19186 27.2891 4.21914C27.4063 4.28946 27.5547 4.21914 27.6875 4.21914H27.8281C27.8281 4.21914 28.125 4.43008 28.4375 4.62539C28.6312 4.7527 28.805 4.90803 28.9531 5.08633C28.9531 5.08633 28.9922 5.17227 29.0469 5.29727L29.2734 5.74258C29.4375 6.07071 29.6484 6.39883 29.6797 6.47696C29.7109 6.55508 29.6797 6.64102 29.6797 6.72696C29.6797 6.81289 30.1172 7.79727 30.125 7.84414C30.125 8.07852 30.2891 8.28164 30.0859 8.57071C30.0743 8.59232 30.0682 8.61648 30.0682 8.64102C30.0682 8.66556 30.0743 8.68972 30.0859 8.71133C30.1819 9.11558 30.2265 9.5303 30.2188 9.94571C30.2457 10.1535 30.2849 10.3596 30.3359 10.5629C30.3434 10.6042 30.3434 10.6466 30.3359 10.6879C30.3212 10.7389 30.3212 10.7931 30.3359 10.8441C30.3932 11.3533 30.4767 11.8592 30.5859 12.3598C30.625 12.477 30.4219 13.0863 30.4766 13.2191C30.5312 13.352 29.9766 13.5629 30.0391 13.6176Z" fill="#DDEF37"/>
<path d="M22.8984 27.2344C23.1328 27.1094 23.2734 27.4453 23.3281 28.0156C23.3259 28.2828 23.2756 28.5475 23.1796 28.7969C23.0546 28.9375 22.9374 29.0781 22.8281 29.1797C22.3694 29.3233 21.9183 29.4902 21.4765 29.6797C21.1785 29.8146 20.8628 29.9066 20.539 29.9531C19.8984 30.0859 19.2578 30.2656 18.5937 30.4453C18.4416 30.4765 18.2848 30.4765 18.1328 30.4453C17.6094 30.3495 17.0699 30.3954 16.5703 30.5781C16.4765 30.5781 16.3828 30.5781 16.3203 30.7344C15.7711 31.0271 15.1611 31.1876 14.539 31.2031C14.0078 31.0391 13.4843 30.9609 12.9765 30.8437C12.9062 30.8437 12.8359 30.8437 12.7499 30.75C12.5624 30.4609 12.414 30.5312 12.2578 30.5156C12.0249 30.4737 11.7988 30.4001 11.5859 30.2969C11.4591 30.2098 11.3459 30.1045 11.2499 29.9844C11.1484 29.8828 11.1796 29.5234 11.2031 29.4766C11.2265 29.4297 11.2031 29.1797 11.2031 29.0312C11.2031 28.8828 11.2031 28.9141 11.2031 28.8672C11.3701 28.663 11.5474 28.4674 11.7343 28.2812C11.897 28.0597 12.0981 27.8692 12.3281 27.7187L12.5937 27.625L13.1562 27.4062L14.0624 27.0234C14.1484 26.9766 14.2656 27.0234 14.3671 27.0234C14.4687 27.0234 15.7109 26.5312 15.7734 26.5312C16.0624 26.5312 16.3281 26.3516 16.664 26.5703C16.7265 26.6172 16.7812 26.5703 16.8437 26.5703C17.3563 26.4567 17.8837 26.4251 18.4062 26.4766C18.6718 26.4766 18.9296 26.4375 19.1874 26.4297C19.2343 26.4297 19.289 26.4297 19.3359 26.4766C19.3969 26.4977 19.4596 26.5134 19.5234 26.5234C20.164 26.4687 20.8046 26.5937 21.4531 26.5234C21.6093 26.5234 22.3203 26.8359 22.4921 26.8281C22.664 26.8203 22.8124 27.2812 22.8984 27.2344Z" fill="#DDEF37"/>
</svg>
